<?xml version="1.0" encoding="UTF-8"?>
<svg xmlns="http://www.w3.org/2000/svg" width="70" height="28" viewBox="0 0 70 28" fill="none">
  <path d="M0.44 0.295H2.435V10H0.44V0.295ZM4.37328 6.73H6.39828C6.43828 7.07 6.59328 7.38 6.86328 7.66C7.14328 7.93 7.50828 8.145 7.95828 8.305C8.40828 8.455 8.91328 8.53 9.47328 8.53C9.98328 8.53 10.4033 8.475 10.7333 8.365C11.0633 8.255 11.3083 8.1 11.4683 7.9C11.6283 7.7 11.7083 7.46 11.7083 7.18C11.7083 6.91 11.6083 6.705 11.4083 6.565C11.2083 6.415 10.8933 6.295 10.4633 6.205C10.0333 6.105 9.46828 6.005 8.76828 5.905C8.21828 5.825 7.69828 5.715 7.20828 5.575C6.71828 5.425 6.28328 5.235 5.90328 5.005C5.53328 4.775 5.23828 4.495 5.01828 4.165C4.80828 3.825 4.70328 3.425 4.70328 2.965C4.70328 2.395 4.86328 1.895 5.18328 1.465C5.51328 1.035 5.99828 0.699999 6.63828 0.459999C7.27828 0.22 8.06328 0.0999996 8.99328 0.0999996C10.3933 0.0999996 11.4683 0.4 12.2183 1C12.9783 1.59 13.3483 2.405 13.3283 3.445H11.3783C11.3383 2.855 11.0883 2.43 10.6283 2.17C10.1783 1.91 9.60828 1.78 8.91828 1.78C8.27828 1.78 7.74828 1.875 7.32828 2.065C6.91828 2.255 6.71328 2.58 6.71328 3.04C6.71328 3.22 6.76328 3.38 6.86328 3.52C6.96328 3.65 7.13328 3.765 7.37328 3.865C7.61328 3.965 7.93828 4.06 8.34828 4.15C8.75828 4.24 9.26828 4.33 9.87828 4.42C10.4483 4.5 10.9633 4.61 11.4233 4.75C11.8933 4.88 12.2933 5.055 12.6233 5.275C12.9633 5.485 13.2233 5.755 13.4033 6.085C13.5833 6.415 13.6733 6.82 13.6733 7.3C13.6733 7.89 13.5183 8.405 13.2083 8.845C12.9083 9.275 12.4383 9.61 11.7983 9.85C11.1683 10.09 10.3483 10.21 9.33828 10.21C8.61828 10.21 7.98328 10.135 7.43328 9.985C6.88328 9.825 6.40828 9.615 6.00828 9.355C5.60828 9.095 5.28328 8.81 5.03328 8.5C4.78328 8.19 4.60328 7.88 4.49328 7.57C4.39328 7.26 4.35328 6.98 4.37328 6.73ZM16.8165 7.885V6.22H23.2365V7.885H16.8165ZM14.4015 10L18.9615 0.295H21.1215L25.7265 10H23.5515L19.5615 1.255H20.5215L16.5615 10H14.4015ZM28.6524 7.885V6.22H35.0724V7.885H28.6524ZM26.2374 10L30.7974 0.295H32.9574L37.5624 10H35.3874L31.3974 1.255H32.3574L28.3974 10H26.2374ZM49.815 6.505C49.725 7.285 49.45 7.95 48.99 8.5C48.53 9.05 47.905 9.47 47.115 9.76C46.325 10.05 45.385 10.195 44.295 10.195C43.385 10.195 42.55 10.09 41.79 9.88C41.04 9.67 40.39 9.355 39.84 8.935C39.3 8.515 38.88 7.995 38.58 7.375C38.28 6.745 38.13 6.01 38.13 5.17C38.13 4.33 38.28 3.595 38.58 2.965C38.88 2.335 39.3 1.81 39.84 1.39C40.39 0.96 41.04 0.64 41.79 0.43C42.55 0.21 43.385 0.0999996 44.295 0.0999996C45.385 0.0999996 46.325 0.249999 47.115 0.549999C47.915 0.849999 48.545 1.28 49.005 1.84C49.465 2.39 49.735 3.06 49.815 3.85H47.835C47.705 3.43 47.485 3.07 47.175 2.77C46.875 2.46 46.485 2.225 46.005 2.065C45.525 1.905 44.955 1.825 44.295 1.825C43.475 1.825 42.755 1.955 42.135 2.215C41.515 2.465 41.035 2.84 40.695 3.34C40.355 3.83 40.185 4.44 40.185 5.17C40.185 5.89 40.355 6.495 40.695 6.985C41.035 7.475 41.515 7.85 42.135 8.11C42.755 8.36 43.475 8.485 44.295 8.485C44.955 8.485 45.52 8.405 45.99 8.245C46.47 8.085 46.86 7.855 47.16 7.555C47.47 7.255 47.695 6.905 47.835 6.505H49.815ZM1.91 22.3H9.605V23.965H1.91V22.3ZM9.275 18.295H11.27V28H9.275V18.295ZM0.155 18.295H2.15V28H0.155V18.295ZM15.568 23.95V26.335H23.053V28H13.573V18.295H23.038V19.96H15.568V22.375H21.688V23.95H15.568ZM26.6163 25.885V24.22H33.0363V25.885H26.6163ZM24.2013 28L28.7613 18.295H30.9213L35.5263 28H33.3513L29.3613 19.255H30.3213L26.3613 28H24.2013ZM38.9322 18.295V26.335H45.3822V28H36.9372V18.295H38.9322ZM49.2301 23.95V26.335H56.7151V28H47.2351V18.295H56.7001V19.96H49.2301V22.375H55.3501V23.95H49.2301ZM58.7634 28V18.295H65.3484C66.0984 18.295 66.7484 18.4 67.2984 18.61C67.8584 18.81 68.2934 19.13 68.6034 19.57C68.9134 20 69.0684 20.555 69.0684 21.235C69.0684 21.695 68.9884 22.085 68.8284 22.405C68.6684 22.725 68.4434 22.985 68.1534 23.185C67.8734 23.385 67.5484 23.54 67.1784 23.65C66.8084 23.75 66.4134 23.815 65.9934 23.845L65.7834 23.725C66.4834 23.735 67.0584 23.795 67.5084 23.905C67.9584 24.005 68.2934 24.195 68.5134 24.475C68.7434 24.745 68.8584 25.15 68.8584 25.69V28H66.8634V25.825C66.8634 25.455 66.7984 25.17 66.6684 24.97C66.5384 24.76 66.3034 24.615 65.9634 24.535C65.6334 24.455 65.1534 24.415 64.5234 24.415H60.7584V28H58.7634ZM60.7584 22.855H65.3484C65.9084 22.855 66.3334 22.72 66.6234 22.45C66.9234 22.18 67.0734 21.815 67.0734 21.355C67.0734 20.915 66.9234 20.58 66.6234 20.35C66.3334 20.12 65.9084 20.005 65.3484 20.005H60.7584V22.855Z" fill="white"></path>
</svg>
