<svg xmlns="http://www.w3.org/2000/svg" width="183" height="34" viewBox="0 0 183 34" fill="none">
<path d="M102.41 24.8789H106.34V10.0575H102.41V24.8789ZM102.41 7.74622H106.34V4.22144H102.41V7.74622Z" fill="#F2F2F2"/>
<path d="M108.871 29.7325H112.8V23.203H112.858C113.695 24.4743 115.054 25.3121 117.134 25.3121C120.947 25.3121 123.548 22.2785 123.548 17.4825C123.548 12.8598 121.034 9.65283 117.105 9.65283C115.082 9.65283 113.695 10.6063 112.742 11.9064H112.656V10.0573H108.871V29.7325ZM116.296 22.0474C113.956 22.0474 112.714 20.285 112.714 17.5981C112.714 14.94 113.695 12.831 116.152 12.831C118.579 12.831 119.56 14.7956 119.56 17.5981C119.56 20.4005 118.29 22.0474 116.296 22.0474Z" fill="#F2F2F2"/>
<path d="M131.389 25.3121C135.087 25.3121 137.629 23.5209 137.629 20.545C137.629 17.078 134.885 16.3846 132.4 15.8646C130.291 15.4312 128.326 15.3156 128.326 14.0444C128.326 12.9754 129.338 12.3976 130.869 12.3976C132.545 12.3976 133.556 12.9754 133.729 14.5644H137.282C136.994 11.5886 134.827 9.65283 130.927 9.65283C127.546 9.65283 124.888 11.1841 124.888 14.3911C124.888 17.627 127.489 18.3492 130.146 18.8693C132.169 19.2738 134.046 19.4182 134.046 20.8339C134.046 21.874 133.065 22.5386 131.331 22.5386C129.568 22.5386 128.355 21.7873 128.095 20.0828H124.455C124.686 23.2319 127.084 25.3121 131.389 25.3121Z" fill="#F2F2F2"/>
<path d="M152.544 24.879V10.0576H148.615V18.6096C148.615 20.5742 147.488 21.961 145.639 21.961C143.963 21.961 143.184 21.0076 143.184 19.2741V10.0576H139.283V19.9385C139.283 23.1744 141.132 25.2835 144.426 25.2835C146.507 25.2835 147.662 24.5035 148.673 23.1456H148.76V24.879H152.544Z" fill="#F2F2F2"/>
<path d="M155.086 24.8787H159.015V16.2691C159.015 14.3044 160.085 13.0332 161.674 13.0332C163.118 13.0332 163.956 13.8999 163.956 15.5756V24.8787H167.885V16.2691C167.885 14.3044 168.897 13.0332 170.543 13.0332C171.988 13.0332 172.826 13.8999 172.826 15.5756V24.8787H176.755V14.9111C176.755 11.6752 174.992 9.65283 171.872 9.65283C169.994 9.65283 168.434 10.6351 167.423 12.2531H167.365C166.643 10.6929 165.141 9.65283 163.262 9.65283C161.211 9.65283 159.767 10.6929 158.958 12.0508H158.871V10.0573H155.086V24.8787Z" fill="#F2F2F2"/>
<path d="M0 24.8789H3.92926V4.22144H0V24.8789Z" fill="#F2F2F2"/>
<path d="M13.536 25.3121C18.1297 25.3121 21.2789 21.9029 21.2789 17.4825C21.2789 13.062 18.1297 9.65283 13.536 9.65283C8.94214 9.65283 5.79297 13.062 5.79297 17.4825C5.79297 21.9029 8.94214 25.3121 13.536 25.3121ZM13.536 22.3074C11.1091 22.3074 9.78001 20.3716 9.78001 17.4825C9.78001 14.5933 11.1091 12.6287 13.536 12.6287C15.934 12.6287 17.2918 14.5933 17.2918 17.4825C17.2918 20.3716 15.934 22.3074 13.536 22.3074Z" fill="#F2F2F2"/>
<path d="M29.6346 29.9348C31.8304 29.9348 33.7372 29.4148 34.9795 28.259C36.0774 27.2478 36.742 25.8321 36.742 23.752V10.0573H32.9572V11.6175H32.8994C32.0037 10.3752 30.6458 9.65283 28.7967 9.65283C25.0409 9.65283 22.3828 12.4842 22.3828 16.9046C22.3828 21.3828 25.6187 23.9831 28.9123 23.9831C30.7902 23.9831 31.9171 23.2319 32.7838 22.2496H32.8705V23.8675C32.8705 25.89 31.8014 26.959 29.5768 26.959C27.7566 26.959 26.9188 26.2366 26.601 25.3121H22.7006C23.1051 28.2013 25.5898 29.9348 29.6346 29.9348ZM29.5768 20.8339C27.5544 20.8339 26.2254 19.3604 26.2254 16.8469C26.2254 14.3622 27.5544 12.8021 29.5479 12.8021C31.9171 12.8021 33.0727 14.6511 33.0727 16.818C33.0727 19.0137 32.0615 20.8339 29.5768 20.8339Z" fill="#F2F2F2"/>
<path d="M46.2938 25.3121C50.8875 25.3121 54.0367 21.9029 54.0367 17.4825C54.0367 13.062 50.8875 9.65283 46.2938 9.65283C41.7 9.65283 38.5508 13.062 38.5508 17.4825C38.5508 21.9029 41.7 25.3121 46.2938 25.3121ZM46.2938 22.3074C43.8669 22.3074 42.5379 20.3716 42.5379 17.4825C42.5379 14.5933 43.8669 12.6287 46.2938 12.6287C48.6918 12.6287 50.0497 14.5933 50.0497 17.4825C50.0497 20.3716 48.6918 22.3074 46.2938 22.3074Z" fill="#F2F2F2"/>
<path d="M178.184 7.62423C178.184 6.95938 178.723 6.42041 179.388 6.42041H181.795C182.46 6.42041 182.999 6.95938 182.999 7.62423C182.999 8.28908 182.46 8.82805 181.795 8.82805H179.388C178.723 8.82805 178.184 8.28908 178.184 7.62423Z" fill="#F2F2F2"/>
<path fill-rule="evenodd" clip-rule="evenodd" d="M77.8652 0C87.1727 0 94.7189 7.54555 94.7189 16.8535C94.7189 26.1614 87.1727 33.7069 77.8652 33.7069C68.5573 33.7069 61.0117 26.1614 61.0117 16.8535C61.0117 7.54555 68.5573 0 77.8652 0ZM77.256 1.26114C75.3333 1.53172 73.5025 3.07667 72.0813 5.66057C71.6691 6.41007 71.2971 7.2381 70.973 8.13216C72.9055 7.64656 75.0282 7.36026 77.256 7.31598V1.26114ZM69.5486 8.53695C69.9517 7.27191 70.4448 6.10803 71.0138 5.07344C71.7183 3.79252 72.5544 2.6864 73.4964 1.83683C68.3739 3.32454 64.3362 7.36225 62.8485 12.4848C63.6981 11.5428 64.8042 10.7067 66.0851 10.0022C67.1197 9.43313 68.2836 8.94 69.5486 8.53695ZM69.1438 9.96132C68.6582 11.8937 68.372 14.0165 68.3276 16.2443H62.2728C62.5434 14.3216 64.0883 12.4908 66.6723 11.0697C67.4218 10.6575 68.2498 10.2855 69.1438 9.96132ZM69.5462 16.2443C69.5965 13.8131 69.9466 11.5306 70.5257 9.51394C72.5423 8.93486 74.8248 8.58481 77.256 8.5345V11.1661C76.349 13.488 74.4992 15.3377 72.1772 16.2443H69.5462ZM68.3276 17.4626H62.2728C62.5434 19.3853 64.0883 21.2161 66.6723 22.6372C67.4218 23.0495 68.2498 23.4214 69.1438 23.7456C68.6582 21.8132 68.372 19.6904 68.3276 17.4626ZM70.5257 24.193C69.9466 22.1763 69.5965 19.8938 69.5462 17.4626H72.1772C74.4992 18.3693 76.349 20.2189 77.256 22.5408V25.1724C74.8248 25.1221 72.5423 24.7721 70.5257 24.193ZM69.5486 25.17C68.2836 24.7669 67.1197 24.2738 66.0851 23.7047C64.8042 23.0002 63.6981 22.1641 62.8485 21.2221C64.3362 26.3446 68.3739 30.3824 73.4964 31.8701C72.5544 31.0205 71.7183 29.9144 71.0138 28.6334C70.4448 27.5989 69.9517 26.435 69.5486 25.17ZM77.256 32.4458C75.3333 32.1752 73.5025 30.6302 72.0813 28.0463C71.6691 27.2969 71.2971 26.4688 70.973 25.5748C72.9055 26.0603 75.0282 26.3467 77.256 26.3909V32.4458ZM82.2338 31.8701C83.1759 31.0205 84.0119 29.9144 84.7164 28.6334C85.2852 27.5989 85.779 26.435 86.1818 25.17C87.4466 24.7669 88.6103 24.2738 89.6451 23.7047C90.926 23.0002 92.0324 22.1641 92.8818 21.2221C91.3937 26.3446 87.3564 30.3824 82.2338 31.8701ZM84.7576 25.5748C84.4332 26.4688 84.0608 27.2969 83.6487 28.0463C82.2278 30.6302 80.397 32.1752 78.4743 32.4458V26.3909C80.702 26.3467 82.8248 26.0603 84.7576 25.5748ZM86.5862 23.7456C87.4803 23.4214 88.3087 23.0495 89.0578 22.6372C91.6423 21.2161 93.1869 19.3853 93.4574 17.4626H87.4028C87.3581 19.6904 87.0716 21.8132 86.5862 23.7456ZM86.1843 17.4626C86.1337 19.8938 85.784 22.1763 85.2043 24.193C83.1879 24.7721 80.9055 25.1221 78.4743 25.1724V22.5428C79.381 20.22 81.2312 18.3695 83.5538 17.4626H86.1843ZM87.4028 16.2443H93.4574C93.1869 14.3216 91.6423 12.4908 89.0578 11.0697C88.3087 10.6575 87.4803 10.2855 86.5862 9.96132C87.0716 11.8937 87.3581 14.0165 87.4028 16.2443ZM85.2043 9.51394C85.784 11.5306 86.1337 13.8131 86.1843 16.2443H83.5539C81.2312 15.3374 79.381 13.4869 78.4743 11.1641V8.5345C80.9055 8.58481 83.1879 8.93486 85.2043 9.51394ZM86.1818 8.53695C87.4466 8.94 88.6103 9.43313 89.6451 10.0022C90.926 10.7067 92.0324 11.5428 92.8818 12.4848C91.3937 7.36225 87.3564 3.32454 82.2338 1.83683C83.1759 2.6864 84.0119 3.79252 84.7164 5.07344C85.2852 6.10803 85.779 7.27191 86.1818 8.53695ZM78.4743 1.26114C80.397 1.53172 82.2278 3.07667 83.6487 5.66057C84.0608 6.41008 84.4332 7.2381 84.7576 8.13216C82.8248 7.64656 80.702 7.36026 78.4743 7.31598V1.26114Z" fill="#F2F2F2"/>
</svg>