<svg xmlns="http://www.w3.org/2000/svg" width="184" height="116" viewBox="0 0 184 116" fill="none">
<path d="M171.307 14.1394C171.307 14.2735 171.307 14.4412 171.273 14.5418C171.101 15.8495 171.101 17.1571 171.204 18.4984C171.273 18.8337 171.341 19.169 171.616 19.4372C172.061 19.9401 172.747 19.8396 173.022 19.236C173.159 18.9343 173.159 18.6325 173.09 18.3307C172.747 17.0565 172.679 15.7153 172.644 14.4076C172.644 14.3406 172.644 14.24 172.644 14.1394C173.022 14.1059 173.365 14.0723 173.673 14.0723C173.913 14.0388 174.119 14.0053 174.291 13.9047C174.805 13.6365 174.805 13.0664 174.256 12.7982C174.05 12.6976 173.776 12.6641 173.536 12.6641C172.679 12.6976 171.821 12.6976 170.964 12.6976C170.655 12.6976 170.347 12.7311 170.038 12.7647C169.866 12.7982 169.661 12.7982 169.524 12.8988C169.283 12.9994 169.146 13.167 169.146 13.4017C169.181 13.6365 169.283 13.7706 169.524 13.8712C169.661 13.9718 169.832 14.0053 170.004 14.0053C170.415 14.0388 170.861 14.1059 171.307 14.1394ZM180.738 15.6818C180.738 15.7153 180.772 15.7489 180.772 15.7489C180.909 16.6542 181.046 17.526 181.149 18.3978C181.184 18.6995 181.218 18.9678 181.424 19.2025C181.869 19.7725 182.555 19.7054 182.864 19.1019C183.001 18.8001 183.035 18.4984 182.967 18.163C182.761 17.1571 182.658 16.1512 182.452 15.1788C182.315 14.5753 182.144 14.0053 181.972 13.4688C181.869 13.1335 181.629 12.8988 181.218 12.8653C180.806 12.7982 180.498 12.9994 180.326 13.3012C180.12 13.5694 179.949 13.8376 179.812 14.1394C179.572 14.6759 179.366 15.2124 179.092 15.7153C179.057 15.8495 179.023 15.9501 178.954 16.0506C178.92 15.9836 178.886 15.9501 178.886 15.9501C178.44 15.1118 178.028 14.2735 177.583 13.4688C177.514 13.4017 177.48 13.3347 177.445 13.2676C177.24 12.9659 177 12.7982 176.622 12.7982C176.279 12.8317 176.005 13.0329 175.834 13.3347C175.765 13.4688 175.765 13.5694 175.731 13.7035C175.594 14.7765 175.422 15.8495 175.285 16.9224C175.216 17.526 175.182 18.1295 175.182 18.7331C175.148 18.8672 175.182 19.0348 175.251 19.169C175.319 19.4372 175.525 19.6049 175.799 19.6384C176.142 19.6719 176.382 19.5713 176.485 19.3031C176.588 19.1019 176.622 18.9343 176.657 18.7666C176.794 18.163 176.897 17.593 177 17.023C177.068 16.6877 177.102 16.4195 177.205 16.0506C177.274 16.1848 177.342 16.2854 177.411 16.3859C177.72 16.7883 178.028 17.1907 178.406 17.526C178.783 17.7942 179.092 17.7607 179.4 17.4589C179.469 17.3918 179.503 17.3583 179.572 17.2912C179.88 16.8218 180.258 16.3524 180.566 15.883C180.635 15.8159 180.669 15.7489 180.738 15.6818Z" fill="#F2F2F2"/>
<path d="M101.717 14.798C101.479 15.4352 101.433 15.8943 101.543 16.2759C101.665 16.7948 101.98 16.9647 102.408 16.8327C106.437 15.8588 115.269 18.6231 118.54 19.3936C119.311 19.5553 119.938 18.5819 119.412 17.7092C118.644 16.864 109.815 13.2454 106.446 13.0481C105.126 12.9752 102.765 12.6441 101.717 14.798Z" fill="#F2F2F2"/>
<path d="M136.239 3.08423C136.668 3.3265 136.908 3.5576 137.026 3.81581C137.203 4.15451 137.11 4.38885 136.813 4.50843C134.151 5.77901 130.608 11.2491 129.177 13.1357C128.831 13.5697 128.031 13.3175 127.91 12.6038C127.935 11.7968 131.076 5.86055 132.829 4.24371C133.517 3.61245 134.655 2.37383 136.239 3.08423Z" fill="#F2F2F2"/>
<path d="M115.032 0.391605C115.548 0.0115521 116.084 -0.12163 116.358 0.125357C120.375 3.48454 122.505 8.80411 123.825 13.6741C123.874 13.7875 123.877 13.9503 123.838 14.1202C123.821 14.2653 123.713 14.4187 123.54 14.5374C123.356 14.6684 123.198 14.7083 123.123 14.5954C121.363 12.2539 111.307 3.14343 115.032 0.391605Z" fill="#F2F2F2"/>
<path d="M29.962 58.6317C30.9248 57.9308 31.9716 57.3473 33.0792 56.8945C34.2381 56.5706 35.4734 56.6242 36.5983 57.0477C37.7229 57.4712 38.6764 58.2411 39.3137 59.2413C39.8839 60.2389 40.1069 61.3907 39.9495 62.5232C39.7921 63.6555 39.2627 64.7072 38.4408 65.52C37.8037 66.1788 37.0804 66.7526 36.2901 67.2268C32.7676 69.4518 29.2138 71.5547 25.6602 73.7797C24.933 74.3365 24.1616 74.8361 23.3534 75.2732C22.124 75.8727 20.719 76.0332 19.3813 75.7271C18.0436 75.4212 16.8574 74.6675 16.0278 73.597C15.4076 72.8388 14.8842 72.0099 14.4692 71.1281C11.1025 64.2094 7.6112 57.3211 4.36923 50.2804C2.87294 47.2327 1.65721 43.7275 0.472652 40.3444C-0.0398429 39.3614 -0.139922 38.2219 0.193726 37.1678C0.527374 36.1138 1.26842 35.2286 2.25924 34.7005C3.25007 34.1724 4.41247 34.0433 5.49927 34.3402C6.58607 34.6372 7.51152 35.3371 8.07876 36.2907C9.82234 38.5562 11.3658 40.9627 12.6923 43.4839C16.059 49.5795 19.2698 55.6752 22.5117 61.5881C22.7005 61.9149 22.9086 62.2302 23.1352 62.5329C25.5753 61.5298 27.8703 60.2182 29.962 58.6317Z" fill="#F2F2F2"/>
<path d="M64.7694 56.5052C57.0699 65.3134 44.1643 63.0884 37.6804 51.7504C33.0668 43.704 32.2564 30.4152 42.2941 22.0335C44.4375 20.2787 47.0005 19.0834 49.7442 18.5589C53.1082 18.0874 56.5387 18.6676 59.545 20.2168C62.5514 21.7659 64.9801 24.2047 66.4841 27.1845C71.9703 36.9377 71.191 49.373 64.7694 56.5052ZM61.6521 35.9624C60.8341 33.5656 59.1932 31.5194 57.0074 30.1713C55.7706 29.3093 54.2676 28.8903 52.7519 28.9846C51.2359 29.079 49.7996 29.6811 48.6844 30.6894C44.2268 34.5603 43.2914 43.7345 46.5334 49.1902C46.9467 50.0799 47.5535 50.8704 48.3118 51.5067C49.0702 52.143 49.9617 52.6097 50.9237 52.8737C51.8858 53.138 52.8952 53.1934 53.8815 53.0363C54.8679 52.8789 55.8069 52.513 56.6335 51.9637C59.0499 50.1319 60.8226 47.6097 61.7052 44.7476C62.588 41.8852 62.5368 38.8252 61.5588 35.9929L61.6521 35.9624Z" fill="#F2F2F2"/>
<path d="M96.1901 39.8023C95.4019 39.9681 94.5875 39.978 93.7951 39.8313C93.003 39.6847 92.2485 39.3848 91.5767 38.949C90.9887 38.6202 90.4826 38.1681 90.0947 37.6252C89.707 37.0822 89.4471 36.4621 89.3339 35.809C89.2205 35.1563 89.2568 34.487 89.4395 33.8494C89.6225 33.2118 89.948 32.6217 90.3922 32.1216C91.166 31.1167 92.2645 30.3973 93.5094 30.0796C96.7597 29.1573 100.106 28.595 103.485 28.4034C104.227 28.3189 104.979 28.3804 105.697 28.584C106.415 28.7879 107.083 29.1296 107.664 29.5897C108.245 30.0496 108.726 30.6184 109.079 31.2626C109.432 31.9067 109.649 32.6134 109.719 33.3409C110.693 36.9146 110.8 40.6616 110.031 44.2829C107.225 55.9867 97.5618 60.0097 86.7136 56.2609C83.6686 55.2586 80.9986 53.391 79.0452 50.8967C76.4399 47.8929 74.5926 44.3331 73.6523 40.5035C72.8905 37.0932 72.9739 33.5545 73.8959 30.1824C74.8177 26.8102 76.5512 23.7026 78.9517 21.1189C81.2297 18.3107 84.1864 16.1007 87.5554 14.6878C89.6842 13.5406 92.1753 13.2144 94.5381 13.7735C95.074 13.9185 95.5605 14.2011 95.9472 14.592C96.3338 14.9829 96.6065 15.4677 96.737 15.9964C96.8674 16.525 96.8507 17.0781 96.6889 17.5983C96.5268 18.1185 96.2256 18.5869 95.8162 18.9549C95.0377 19.6439 94.192 20.2564 93.2911 20.7836C90.5197 22.5092 88.1081 24.7328 86.1837 27.3365C84.9223 29.0214 84.0536 30.9562 83.639 33.0045C83.2241 35.0527 83.2735 37.1651 83.7836 39.1929C84.4905 41.9578 86.0593 44.4395 88.2723 46.2943C95.1302 52.3902 104.046 46.5076 102.487 38.187C100.212 38.7357 98.2164 39.3148 96.1901 39.8023Z" fill="#F2F2F2"/>
<path d="M138.089 56.9925C127.958 63.0885 116.424 56.9925 113.899 44.1916C112.06 35.0479 115.551 22.2468 127.771 17.3701C130.371 16.3549 133.191 15.9984 135.97 16.3339C139.308 16.9313 142.37 18.5381 144.724 20.9278C147.079 23.3173 148.607 26.3691 149.093 29.6532C151.151 40.534 146.475 52.1465 138.089 56.9925ZM141.612 36.4803C141.609 33.9484 140.693 31.4983 139.025 29.5617C138.133 28.3638 136.844 27.5055 135.377 27.133C133.91 26.7607 132.357 26.8972 130.982 27.5197C125.496 29.8359 121.63 38.248 123.033 44.4355C123.14 45.4064 123.463 46.3428 123.978 47.1791C124.494 48.0154 125.191 48.7315 126.019 49.2773C126.847 49.8229 127.788 50.1853 128.774 50.3387C129.761 50.4919 130.77 50.4328 131.73 50.1654C134.63 49.1749 137.141 47.3237 138.912 44.8702C140.684 42.4167 141.628 39.4835 141.612 36.4803Z" fill="#F2F2F2"/>
<path d="M159.339 59.5528C159.186 60.6683 158.587 61.6787 157.672 62.3618C156.757 63.0447 155.602 63.3445 154.461 63.195C153.32 63.0454 152.287 62.4588 151.588 61.5642C150.889 60.6699 150.583 59.5405 150.736 58.425C150.889 57.3095 151.489 56.2991 152.403 55.616C153.318 54.9329 154.473 54.6333 155.614 54.7828C156.755 54.9324 157.789 55.5187 158.487 56.4133C159.186 57.3079 159.492 58.4373 159.339 59.5528ZM156.627 18.4367C157.22 17.5514 158.09 16.8772 159.107 16.5147C160.124 16.1522 161.233 16.1208 162.27 16.4251C163.323 16.6829 164.254 17.2868 164.907 18.1358C165.56 18.9847 165.894 20.0271 165.855 21.0884C165.717 22.7907 165.457 24.4814 165.075 26.1478C164.047 31.7865 163.049 37.4249 161.958 43.0027C161.459 45.2277 160.805 47.3612 160.087 49.6165C159.838 50.3216 159.421 50.9587 158.872 51.4758C158.53 51.8648 158.094 52.1631 157.603 52.3432C157.112 52.5236 156.583 52.5798 156.064 52.5068C155.545 52.4339 155.053 52.2342 154.634 51.9262C154.215 51.618 153.882 51.2115 153.666 50.7443C153.295 49.9062 153.094 49.0056 153.074 48.0927C153.074 44.3132 153.074 40.5035 153.323 36.6935C153.747 31.2563 154.58 25.8571 155.817 20.5398C155.962 19.8274 156.237 19.1461 156.627 18.5282V18.4367Z" fill="#F2F2F2"/>
<path fill-rule="evenodd" clip-rule="evenodd" d="M16.792 84.0454C16.424 84.8488 16.323 85.7444 16.5029 86.6063C16.6225 87.7425 16.8853 88.8601 17.2853 89.9335C17.7847 91.248 18.3435 92.5478 19.0325 94.1498C19.191 94.5184 19.3565 94.9032 19.5298 95.3082C20.459 97.4785 21.6248 100.252 23.1799 104.266C23.6201 105.407 24.0109 106.557 24.4045 107.714C24.5635 108.182 24.7231 108.651 24.8865 109.121C25.4719 110.793 26.4794 112.296 27.8147 113.486C28.3818 114.14 29.1339 114.617 29.9773 114.856C30.8371 115.099 31.7516 115.083 32.6022 114.812C33.4529 114.539 34.2001 114.023 34.7467 113.33C35.2826 112.651 35.6013 111.832 35.6633 110.977C36.011 109.31 35.8923 107.583 35.3192 105.976C34.4097 103.309 33.3737 100.638 32.179 98.0249L32.1735 98.0134C30.2081 93.9257 28.2103 89.8663 26.1179 85.8053L26.1023 85.7768C25.4898 84.7188 24.6937 83.773 23.75 82.9819C23.1373 82.2758 22.2922 81.7995 21.3589 81.6353C20.4057 81.4678 19.4227 81.6366 18.5852 82.1122C17.793 82.5545 17.165 83.2313 16.792 84.0454Z" fill="#F2F2F2"/>
<path fill-rule="evenodd" clip-rule="evenodd" d="M46.8109 73.9796C43.7292 73.1993 40.5108 73.0856 37.38 73.6466C34.955 73.88 32.57 74.4269 30.9139 75.5103C30.0716 76.0616 29.3906 76.7696 29.0118 77.6694C28.6309 78.5742 28.5822 79.6089 28.8944 80.7618C29.4643 82.8736 30.2044 84.9268 30.9419 86.9735L31.0613 87.305L31.0642 87.3123C33.2848 93.2582 35.5265 99.1839 37.7886 105.089C38.0524 106.02 38.4254 106.918 38.9002 107.764L38.9091 107.78C39.5362 108.832 40.3406 109.773 41.2883 110.563C41.7623 110.998 42.3484 111.298 42.9839 111.433C43.6257 111.568 44.2931 111.529 44.9135 111.319C45.5341 111.109 46.0836 110.736 46.5024 110.242C46.9144 109.755 47.1842 109.169 47.2833 108.545C47.6922 106.851 47.5612 105.074 46.9076 103.455C46.7037 102.91 46.5437 102.352 46.3751 101.766C46.3189 101.57 46.2619 101.372 46.2018 101.169C51.3799 99.19 56.8894 96.5289 58.8268 90.3383C59.5855 88.1991 59.6488 85.8826 59.0077 83.7065C58.3662 81.528 57.0499 79.5971 55.2403 78.1797C52.7774 76.1955 49.9005 74.7618 46.8109 73.9796ZM38.2688 81.5727C38.3708 81.544 38.4735 81.5173 38.5765 81.4925C41.9476 80.9743 45.3966 81.6648 48.2885 83.4362C49.5629 84.3028 50.085 85.2656 50.1747 86.1921C50.2672 87.1461 49.9125 88.1798 49.1998 89.1734C47.8532 91.0505 45.3958 92.5529 43.1761 92.8329C41.5578 89.1891 39.9145 85.3979 38.2688 81.5727Z" fill="#F2F2F2"/>
<path d="M67.3526 67.31C71.0225 65.6529 75.5684 65.3666 79.1256 66.5318C80.0215 66.7869 80.7987 67.3388 81.3245 68.093C81.8468 68.8425 82.0878 69.7457 82.0073 70.6487C82.0021 71.2348 81.8549 71.8115 81.5781 72.3318C81.2962 72.8614 80.8882 73.3168 80.3883 73.6598C79.8885 74.0025 79.3115 74.2229 78.7063 74.3016C78.1008 74.3806 77.4852 74.3157 76.9108 74.1126L76.8672 74.0972L76.8261 74.076C76.5323 73.9257 76.2201 73.8125 75.8973 73.7388L75.8769 73.7343C73.3745 73.0844 71.0141 74.1612 70.1519 75.4843C69.7407 76.1151 69.6897 76.752 70.0322 77.3313C70.399 77.9516 71.2985 78.6478 73.1188 79.144C73.6195 79.2784 74.1327 79.408 74.6532 79.5398C76.0926 79.9042 77.5884 80.2828 79.0349 80.8074L79.0404 80.8095C85.7135 83.292 88.1984 88.4335 87.3477 93.2694C86.5062 98.0516 82.4214 102.404 76.2787 103.43C74.0435 103.915 71.7173 103.82 69.5305 103.157C67.3382 102.491 65.3621 101.276 63.7985 99.6322L63.7577 99.5893C63.2641 98.97 62.9321 98.2424 62.785 97.4705C62.6495 96.7738 62.7209 96.0538 62.9902 95.3953C63.2579 94.7406 63.7107 94.1741 64.2949 93.7613C64.9122 93.2934 65.6562 93.0126 66.435 92.9541C67.2111 92.8958 67.9878 93.0607 68.6694 93.4283C69.3501 93.7498 69.9833 94.16 70.5516 94.6478L70.5624 94.6567C71.5678 95.5558 72.7842 95.79 73.9507 95.573C75.1342 95.3529 76.2471 94.6682 76.9629 93.7598C77.6739 92.8571 77.9594 91.7847 77.6206 90.7437C77.2797 89.6951 76.2546 88.5203 74.0025 87.5381C73.4137 87.2937 72.8033 87.0966 72.1683 86.9047C71.9971 86.8529 71.823 86.8014 71.6468 86.7491C71.1772 86.6098 70.6941 86.4663 70.2204 86.3081C69.8942 86.1994 69.5705 86.0963 69.25 85.9941C68.374 85.7152 67.5199 85.4433 66.698 85.0786C64.909 84.4831 63.3635 83.3396 62.2914 81.8173C61.2148 80.289 60.6732 78.4614 60.7469 76.6074C60.7526 72.0892 63.6631 68.9764 67.3526 67.31Z" fill="#F2F2F2"/>
<path d="M113.881 66.8286C113.169 66.4888 112.382 66.3275 111.591 66.3591C110.8 66.391 110.029 66.6148 109.348 67.0109C108.672 67.404 108.106 67.9546 107.7 68.6137C107.328 69.1687 107.071 69.7893 106.942 70.441C106.814 71.0922 106.817 71.7615 106.951 72.4111C107.084 73.2461 107.231 74.0581 107.376 74.8589C107.616 76.184 107.85 77.4794 108.004 78.8001L108.01 78.8336C108.361 80.9048 108.545 82.9997 108.561 85.0989L108.563 85.1287C108.683 87.3958 107.893 89.6187 106.362 91.3258L106.338 91.3561C105.84 91.9801 105.174 92.4565 104.414 92.7317C103.655 93.007 102.833 93.0703 102.039 92.9145C101.245 92.7587 100.511 92.3901 99.9191 91.8497C99.3272 91.3093 98.9003 90.6166 98.6872 89.8529C98.2323 88.2433 97.9691 86.5877 97.9022 84.9193L98.6791 72.825C98.6906 72.6671 98.7037 72.505 98.717 72.3413C98.7466 71.974 98.7769 71.5999 98.7894 71.2509C98.8077 70.7375 98.7921 70.2094 98.6697 69.7096C98.5445 69.1987 98.3063 68.7127 97.8839 68.2989C97.4656 67.8892 96.9009 67.587 96.1904 67.3813C94.9054 67.0177 93.819 67.0292 92.9136 67.4048C92.0078 67.7805 91.3872 68.478 90.948 69.2837C90.5122 70.0826 90.2322 71.0284 90.0204 71.9759C89.8633 72.6788 89.7371 73.4168 89.6171 74.1193C89.5755 74.3614 89.535 74.599 89.4939 74.8298L89.4929 74.8366C88.8508 78.689 88.6597 82.6005 88.9232 86.4952C88.9724 88.5999 89.4213 90.6775 90.2474 92.6217C91.1793 95.1303 92.8674 97.3038 95.0887 98.8554C97.3147 100.41 99.9711 101.267 102.706 101.312C105.441 101.357 108.126 100.589 110.404 99.109C112.679 97.6311 114.442 95.5131 115.46 93.035C116.884 89.8783 117.553 86.4452 117.415 82.9976C117.331 80.4806 117.191 77.9442 117.052 75.4207C116.983 74.1828 116.915 72.9476 116.854 71.7199C116.823 70.4889 116.408 69.2965 115.664 68.3028C115.204 67.6746 114.591 67.168 113.881 66.8286Z" fill="#F2F2F2"/>
<path d="M139.071 85.7926C138.999 85.8822 138.923 85.9751 138.843 86.0715C138.265 82.8068 137.728 79.5432 137.191 76.2746C136.998 75.1018 136.805 73.9241 136.61 72.7498L136.588 72.6188L136.517 72.5056C136.383 72.2926 136.369 72.0837 136.369 71.6382V71.5867L136.361 71.5357C136.216 70.6158 135.79 69.7596 135.14 69.0794C134.492 68.401 133.65 67.9288 132.724 67.7239C131.799 67.5009 130.827 67.55 129.931 67.8653C129.037 68.1798 128.257 68.745 127.69 69.4901C127.218 70.0618 126.832 70.696 126.542 71.3736C125.885 72.8334 125.221 74.2969 124.556 75.7643L124.545 75.7896C122.884 79.453 121.213 83.1409 119.59 86.8579L119.585 86.8699C118.589 89.28 117.766 91.8195 116.947 94.3511C116.783 94.8565 116.619 95.3615 116.454 95.8653C116.159 96.6642 116.029 97.5128 116.074 98.3611C116.02 99.1206 116.206 99.8782 116.607 100.532C117.015 101.198 117.628 101.723 118.358 102.031C119.131 102.363 119.995 102.433 120.815 102.231C121.632 102.03 122.357 101.569 122.877 100.92C123.541 100.122 124.113 99.2505 124.579 98.3277C125.953 95.578 127.267 92.7949 128.575 90.0238C129.081 88.9519 129.573 87.992 130.133 86.9465C130.171 87.0754 130.21 87.2011 130.251 87.3272C130.837 89.8512 131.827 92.2689 133.183 94.4915C133.44 94.9623 133.798 95.3738 134.232 95.6977C134.671 96.0256 135.178 96.2556 135.717 96.3725C136.256 96.4893 136.815 96.4899 137.355 96.374C137.894 96.2585 138.402 96.0282 138.842 95.7019L139.711 95.0653L146.462 89.5056L146.063 91.9931C145.515 95.4123 144.971 98.803 144.394 102.194C144.016 103.698 144.016 105.268 144.395 106.77C144.559 107.616 144.978 108.395 145.597 109.007C146.221 109.624 147.02 110.043 147.891 110.211C148.762 110.378 149.665 110.285 150.481 109.945C151.286 109.609 151.97 109.048 152.449 108.333C153.562 106.983 154.255 105.348 154.445 103.624C154.732 101.188 155.055 98.7196 155.379 96.2517C155.752 93.4071 156.125 90.5633 156.44 87.7742L156.441 87.7656C156.745 84.7124 156.891 81.6466 156.881 78.5791C156.947 77.6097 156.701 76.644 156.175 75.8187C155.647 74.9905 154.865 74.3466 153.941 73.9782C152.98 73.5511 151.905 73.4368 150.872 73.6528C149.847 73.8671 148.918 74.3957 148.222 75.1614C146.977 76.2874 145.809 77.4923 144.725 78.7683L144.718 78.777C143.535 80.2182 142.36 81.6877 141.193 83.1477C140.483 84.0353 139.775 84.9207 139.071 85.7926Z" fill="#F2F2F2"/>
</svg>