<svg xmlns="http://www.w3.org/2000/svg" width="183" height="71" viewBox="0 0 183 71" fill="none">
<path d="M84.0293 62.1868H88.8549V43.9845H84.0293V62.1868ZM84.0293 41.1459H88.8549V36.8171H84.0293V41.1459Z" fill="#F2F2F2"/>
<path d="M91.9629 68.1481H96.7885V60.1292H96.8596C97.8884 61.6903 99.5561 62.7194 102.111 62.7194C106.794 62.7194 109.988 58.9938 109.988 53.1037C109.988 47.4265 106.901 43.488 102.075 43.488C99.5916 43.488 97.8884 44.659 96.7175 46.2555H96.6111V43.9848H91.9629V68.1481ZM101.082 58.7098C98.2079 58.7098 96.682 56.5455 96.682 53.2456C96.682 49.9813 97.8884 47.391 100.904 47.391C103.885 47.391 105.091 49.8038 105.091 53.2456C105.091 56.6874 103.53 58.7098 101.082 58.7098Z" fill="#F2F2F2"/>
<path d="M119.614 62.7194C124.155 62.7194 127.278 60.5194 127.278 56.8648C127.278 52.6069 123.907 51.7554 120.855 51.1168C118.265 50.5845 115.852 50.4424 115.852 48.8813C115.852 47.5685 117.094 46.8587 118.975 46.8587C121.033 46.8587 122.275 47.5685 122.487 49.52H126.852C126.497 45.8654 123.836 43.488 119.046 43.488C114.894 43.488 111.63 45.3686 111.63 49.307C111.63 53.2811 114.823 54.1682 118.088 54.8069C120.571 55.3035 122.878 55.481 122.878 57.2197C122.878 58.497 121.671 59.313 119.542 59.313C117.378 59.313 115.888 58.3906 115.569 56.297H111.098C111.382 60.1647 114.327 62.7194 119.614 62.7194Z" fill="#F2F2F2"/>
<path d="M145.601 62.1869V43.9846H140.775V54.4873C140.775 56.9 139.391 58.6032 137.121 58.6032C135.063 58.6032 134.105 57.4323 134.105 55.3033V43.9846H129.314V56.1195C129.314 60.0934 131.585 62.6837 135.63 62.6837C138.185 62.6837 139.604 61.7256 140.846 60.0579H140.953V62.1869H145.601Z" fill="#F2F2F2"/>
<path d="M148.721 62.1871H153.546V51.6134C153.546 49.2006 154.859 47.6395 156.811 47.6395C158.585 47.6395 159.614 48.7038 159.614 50.7619V62.1871H164.439V51.6134C164.439 49.2006 165.681 47.6395 167.704 47.6395C169.478 47.6395 170.507 48.7038 170.507 50.7619V62.1871H175.332V49.9458C175.332 45.9718 173.168 43.488 169.336 43.488C167.03 43.488 165.114 44.6944 163.872 46.6814H163.801C162.914 44.7654 161.069 43.488 158.762 43.488C156.243 43.488 154.469 44.7654 153.475 46.4331H153.369V43.9848H148.721V62.1871Z" fill="#F2F2F2"/>
<path d="M84.0996 31.0106H88.9252V5.64087H84.0996V31.0106Z" fill="#F2F2F2"/>
<path d="M100.724 31.5428C106.366 31.5428 110.233 27.3559 110.233 21.9272C110.233 16.4984 106.366 12.3115 100.724 12.3115C95.0825 12.3115 91.2148 16.4984 91.2148 21.9272C91.2148 27.3559 95.0825 31.5428 100.724 31.5428ZM100.724 27.8527C97.7436 27.8527 96.1115 25.4754 96.1115 21.9272C96.1115 18.3789 97.7436 15.9662 100.724 15.9662C103.669 15.9662 105.337 18.3789 105.337 21.9272C105.337 25.4754 103.669 27.8527 100.724 27.8527Z" fill="#F2F2F2"/>
<path d="M120.496 37.2201C123.193 37.2201 125.534 36.5814 127.06 35.162C128.408 33.9202 129.225 32.1815 129.225 29.6268V12.8083H124.576V14.7243H124.505C123.405 13.1986 121.738 12.3115 119.467 12.3115C114.854 12.3115 111.59 15.7888 111.59 21.2176C111.59 26.7173 115.564 29.9106 119.609 29.9106C121.915 29.9106 123.299 28.9882 124.364 27.7818H124.47V29.7687C124.47 32.2525 123.157 33.5653 120.425 33.5653C118.19 33.5653 117.161 32.6783 116.77 31.5428H111.98C112.477 35.0911 115.528 37.2201 120.496 37.2201ZM120.425 26.0431C117.941 26.0431 116.309 24.2335 116.309 21.1466C116.309 18.0952 117.941 16.1791 120.389 16.1791C123.299 16.1791 124.718 18.4499 124.718 21.1111C124.718 23.8077 123.476 26.0431 120.425 26.0431Z" fill="#F2F2F2"/>
<path d="M140.953 31.5428C146.594 31.5428 150.462 27.3559 150.462 21.9272C150.462 16.4984 146.594 12.3115 140.953 12.3115C135.311 12.3115 131.443 16.4984 131.443 21.9272C131.443 27.3559 135.311 31.5428 140.953 31.5428ZM140.953 27.8527C137.972 27.8527 136.34 25.4754 136.34 21.9272C136.34 18.3789 137.972 15.9662 140.953 15.9662C143.898 15.9662 145.565 18.3789 145.565 21.9272C145.565 25.4754 143.898 27.8527 140.953 27.8527Z" fill="#F2F2F2"/>
<path d="M154.693 24.0557H175.557V19.9043H154.693V24.0557Z" fill="#F2F2F2"/>
<path d="M177.086 40.8928C177.086 40.0763 177.748 39.4143 178.565 39.4143H181.521C182.338 39.4143 183 40.0763 183 40.8928C183 41.7092 182.338 42.3712 181.521 42.3712H178.565C177.748 42.3712 177.086 41.7092 177.086 40.8928Z" fill="#F2F2F2"/>
<path fill-rule="evenodd" clip-rule="evenodd" d="M35.2953 0C54.7883 0 70.5905 15.8022 70.5905 35.2953C70.5905 54.7883 54.7883 70.5905 35.2953 70.5905C15.8022 70.5905 0 54.7883 0 35.2953C0 15.8022 15.8022 0 35.2953 0ZM34.0195 2.64113C29.993 3.20779 26.1589 6.44329 23.1826 11.8546C22.3193 13.4243 21.5403 15.1584 20.8614 17.0307C24.9084 16.0138 29.354 15.4142 34.0195 15.3214V2.64113ZM17.8785 17.8785C18.7225 15.2292 19.7553 12.7917 20.947 10.625C22.4224 7.94248 24.1734 5.62598 26.1462 3.84678C15.4184 6.9624 6.96239 15.4184 3.84679 26.1462C5.62597 24.1734 7.94248 22.4224 10.625 20.947C12.7917 19.7553 15.2292 18.7226 17.8785 17.8785ZM17.0307 20.8614C16.0138 24.9084 15.4142 29.354 15.3215 34.0195H2.64112C3.2078 29.9929 6.4433 26.1587 11.8546 23.1826C13.4243 22.3193 15.1584 21.5404 17.0307 20.8614ZM17.8735 34.0195C17.9789 28.928 18.7118 24.148 19.9245 19.9245C24.148 18.7118 28.9282 17.9787 34.0195 17.8734V23.3845C32.1201 28.2472 28.2461 32.1208 23.3833 34.0195H17.8735ZM15.3215 36.571H2.64112C3.2078 40.5977 6.4433 44.4316 11.8546 47.4079C13.4243 48.2712 15.1584 49.0502 17.0307 49.7291C16.0138 45.6821 15.4142 41.2365 15.3215 36.571ZM19.9245 50.666C18.7118 46.4426 17.9789 41.6625 17.8735 36.571H23.3833C28.2461 38.4697 32.1203 42.3434 34.0195 47.206V52.7172C28.9282 52.6118 24.148 51.8788 19.9245 50.666ZM17.8785 52.7121C15.2292 51.868 12.7917 50.8353 10.625 49.6435C7.94248 48.1682 5.62597 46.4172 3.84679 44.4443C6.96239 55.1722 15.4184 63.6282 26.1462 66.7437C24.1734 64.9645 22.4224 62.6481 20.947 59.9654C19.7553 57.7988 18.7225 55.3613 17.8785 52.7121ZM34.0195 67.9494C29.993 67.3827 26.1589 64.1472 23.1826 58.7359C22.3193 57.1663 21.5403 55.4321 20.8614 53.5599C24.9084 54.5767 29.354 55.1764 34.0195 55.269V67.9494ZM44.4443 66.7437C46.4172 64.9645 48.1682 62.6481 49.6437 59.9654C50.8352 57.7988 51.868 55.3613 52.7121 52.7121C55.3613 51.868 57.7988 50.8353 59.9656 49.6435C62.648 48.1682 64.9646 46.4172 66.7437 44.4443C63.6282 55.1722 55.1721 63.6282 44.4443 66.7437ZM49.7291 53.5599C49.0502 55.4321 48.2712 57.1663 47.4079 58.7359C44.4318 64.1472 40.5977 67.3827 36.571 67.9494V55.269C41.2365 55.1764 45.6821 54.5767 49.7291 53.5599ZM53.5599 49.7291C55.4321 49.0502 57.1663 48.2712 58.7359 47.4079C64.1472 44.4316 67.3827 40.5977 67.9494 36.571H55.269C55.1764 41.2365 54.5767 45.6821 53.5599 49.7291ZM52.7172 36.571C52.6118 41.6625 51.8787 46.4426 50.666 50.666C46.4426 51.8788 41.6625 52.6118 36.571 52.7172V47.2101C38.4697 42.3457 42.3446 38.4703 47.2088 36.571H52.7172ZM55.269 34.0195H67.9494C67.3827 29.9929 64.1472 26.1587 58.7359 23.1826C57.1663 22.3193 55.4321 21.5404 53.5599 20.8614C54.5767 24.9084 55.1764 29.354 55.269 34.0195ZM50.666 19.9245C51.8787 24.148 52.6118 28.928 52.7172 34.0195H47.2088C42.3446 32.1203 38.4697 28.2449 36.571 23.3805V17.8734C41.6625 17.9787 46.4426 18.7118 50.666 19.9245ZM52.7121 17.8785C55.3613 18.7226 57.7988 19.7553 59.9656 20.947C62.648 22.4224 64.9646 24.1734 66.7437 26.1462C63.6282 15.4184 55.1721 6.9624 44.4443 3.84678C46.4172 5.62598 48.1682 7.94248 49.6437 10.625C50.8352 12.7917 51.868 15.2292 52.7121 17.8785ZM36.571 2.64113C40.5977 3.20779 44.4318 6.44329 47.4079 11.8546C48.2712 13.4243 49.0502 15.1584 49.7291 17.0307C45.6821 16.0138 41.2365 15.4142 36.571 15.3214V2.64113Z" fill="#F2F2F2"/>
</svg>