<svg xmlns="http://www.w3.org/2000/svg" width="183" height="41" viewBox="0 0 183 41" fill="none">
<path d="M32.061 16.9314C35.6823 16.9314 36.497 18.5043 36.497 20.4661C36.497 22.5456 35.5115 24.0354 32.076 24.0354C28.6625 24.0354 27.6758 22.6322 27.6758 20.4661C27.6758 18.3347 28.7513 16.9314 32.061 16.9314Z" fill="#F2F2F2"/>
<path d="M69.9048 16.9314C73.526 16.9314 74.3407 18.5043 74.3407 20.4661C74.3407 22.5456 73.3541 24.0354 69.9197 24.0354C66.5074 24.0354 65.5195 22.6322 65.5195 20.4661C65.5195 18.3347 66.5951 16.9314 69.9048 16.9314Z" fill="#F2F2F2"/>
<path fill-rule="evenodd" clip-rule="evenodd" d="M0 40.9129V0H183V40.9129H0ZM87.2174 38.6049H180.692V2.30801H87.2174V38.6049ZM32.0793 27.5184C38.5083 27.5184 41.2109 24.7453 41.2109 20.4143C41.2109 16.013 38.1667 13.3968 32.0793 13.3968C26.0854 13.3968 22.9303 16.238 22.9303 20.4143C22.9303 25.1273 26.24 27.5184 32.0793 27.5184ZM9.72738 13.7084V27.3107H22.703V23.6882H14.4219V13.7084H9.72738ZM55.7329 27.3107L55.6118 25.9928C54.0413 27.1136 52.1298 27.6529 50.2052 27.5184C47.3121 27.5184 44.9026 26.6517 43.5513 24.9023C42.6599 23.625 42.2098 22.0918 42.2691 20.5355C42.2185 19.0119 42.6841 17.5158 43.5905 16.2899C44.958 14.5924 47.4368 13.4661 51.1273 13.4661C55.3729 13.4661 57.8678 14.7655 58.9411 16.9489C59.1714 17.4631 59.3068 18.0147 59.3403 18.5772H54.849C54.7357 18.2353 54.5251 17.9342 54.2431 17.7105C53.3484 17.1173 52.28 16.843 51.2104 16.9316C50.5829 16.8555 49.9464 16.9134 49.3431 17.1017C48.7398 17.2899 48.1832 17.604 47.7103 18.0232C47.1732 18.7583 46.9211 19.6633 47.0006 20.5701C46.9383 21.4353 47.1701 22.2962 47.6583 23.0132C48.1355 23.4578 48.7028 23.7945 49.3216 24.0009C49.9405 24.2071 50.5963 24.2781 51.245 24.2087C52.5332 24.3135 53.8122 23.9162 54.8143 23.0997C55.0296 22.8306 55.178 22.5142 55.2471 22.1765H50.4141V19.2534H59.458V27.3107H55.7329ZM69.9237 27.5184C76.3515 27.5184 79.0554 24.7453 79.0554 20.4143C79.0554 16.013 76.0064 13.3968 69.9237 13.3968C63.9298 13.3968 60.7748 16.238 60.7748 20.4143C60.7748 25.1273 64.0844 27.5184 69.9237 27.5184Z" fill="#F2F2F2"/>
<path d="M95.123 27.2587V13.6565H98.4697V27.2587H95.123Z" fill="#F2F2F2"/>
<path d="M115.657 21.5751C114.809 22.6841 113.349 23.1907 111.292 23.2034C110.858 23.2034 105.105 23.1861 105.105 23.1861V27.2586H101.83V13.6563H111.293C112.051 13.5761 112.819 13.6566 113.543 13.8923C114.269 14.1282 114.936 14.5141 115.503 15.025C116.251 15.9992 116.614 17.2139 116.525 18.4385C116.601 19.5524 116.296 20.659 115.657 21.5751ZM112.972 17.1403C112.626 16.621 111.879 16.3325 110.616 16.3325H105.088V20.473H110.58C111.931 20.473 112.643 20.1961 112.972 19.6583C113.167 19.2795 113.251 18.8528 113.214 18.4281C113.243 17.9852 113.16 17.5422 112.972 17.1403Z" fill="#F2F2F2"/>
<path d="M126.172 27.4662C120.003 27.4662 118.115 25.1582 118.115 22.8744H121.615C121.615 24.0007 123.157 24.85 126.328 24.85C129.481 24.85 130.313 24.295 130.313 23.3937C130.313 22.3886 129.69 22.077 126.761 21.7481C126.184 21.6962 124.613 21.5057 124.024 21.4192C119.869 20.9507 118.27 19.7205 118.27 17.5198C118.27 15.198 120.61 13.4485 125.687 13.4485C131.197 13.4485 133.311 15.6146 133.311 17.8672H129.849C129.849 16.7236 128.55 16.0646 125.482 16.0646C122.329 16.0646 121.653 16.4974 121.653 17.3467C121.653 18.2307 122.346 18.5076 125.692 18.9058C126.455 19.0108 128.153 19.2012 128.62 19.252C132.156 19.6155 133.75 20.8976 133.75 23.1675C133.744 25.8713 131.318 27.4662 126.172 27.4662Z" fill="#F2F2F2"/>
<path d="M143.606 27.4492C139.085 27.4492 136.139 25.6639 136.139 21.9099V13.6565H139.447V21.9561C139.447 23.6721 140.852 24.8146 143.745 24.8146C146.361 24.8146 147.921 23.7413 147.921 21.9561V13.6565H151.196V22.2181C151.196 25.6304 148.458 27.4492 143.606 27.4492Z" fill="#F2F2F2"/>
<path d="M169.132 27.2587V18.179L164.886 27.2587H161.664L157.54 18.179V27.2587H154.424V13.6565H158.645L163.323 24.0183L168.106 13.6565H172.26V27.2587H169.132Z" fill="#F2F2F2"/>
</svg>