<svg xmlns="http://www.w3.org/2000/svg" width="183" height="43" viewBox="0 0 183 43" fill="none">
<path d="M39.3426 13.7219C39.8766 13.7219 40.0546 13.9148 40.0546 14.434V26.183H46.0923C46.6115 26.183 46.8044 26.3758 46.8044 26.895V27.9335C46.8044 28.4527 46.6115 28.6455 46.0923 28.6455H38.141C37.6217 28.6455 37.4141 28.4527 37.4141 27.9335V14.434C37.4141 13.9148 37.6217 13.7219 38.141 13.7219H39.3426Z" fill="#F2F2F2"/>
<path d="M52.0684 18.8994C52.0684 15.4727 54.2342 13.4106 58.0022 13.4106C61.7702 13.4106 63.936 15.4727 63.936 18.8994V23.4685C63.936 26.8953 61.7554 28.9573 58.0022 28.9573C54.249 28.9573 52.0684 26.8953 52.0684 23.4685V18.8994ZM61.4438 18.8994C61.4438 16.9709 60.2422 15.9325 58.0764 15.9325C55.9105 15.9325 54.7238 16.9858 54.7238 18.8994V23.4982C54.7238 25.4415 55.9105 26.4651 58.0764 26.4651C60.2422 26.4651 61.4438 25.397 61.4438 23.4982V18.8994Z" fill="#F2F2F2"/>
<path d="M81.604 20.4717C82.1825 20.4717 82.3161 20.6645 82.3161 21.1837V24.0023C82.3318 24.6662 82.1987 25.3253 81.9267 25.931C81.6544 26.5368 81.2503 27.074 80.7436 27.5033C79.4852 28.5054 77.8985 29.0025 76.2932 28.8977C72.4511 28.8977 70.3594 26.8357 70.3594 23.4089V18.8102C70.3594 15.4279 72.5252 13.3511 76.2932 13.3511C79.2601 13.3511 81.1886 14.523 82.0045 16.8669C82.0502 16.955 82.0747 17.0525 82.076 17.1516C82.0774 17.2508 82.0556 17.349 82.0124 17.4382C81.9692 17.5275 81.9057 17.6055 81.8271 17.666C81.7485 17.7264 81.6568 17.7678 81.5595 17.7866L80.4024 18.1872C79.898 18.3652 79.6903 18.2613 79.5123 17.7421C79.2665 17.1085 78.8166 16.5748 78.2336 16.2256C77.6506 15.8764 76.9679 15.7313 76.2932 15.8136C74.1125 15.8136 72.9258 16.8669 72.9258 18.7805V23.4979C72.9258 25.4413 74.1274 26.4649 76.2932 26.4649C78.4591 26.4649 79.7942 25.4709 79.7942 24.0172V22.9194H76.5751C76.041 22.9194 75.8482 22.7117 75.8482 22.1925V21.1837C75.8482 20.6645 76.041 20.4717 76.5751 20.4717H81.604Z" fill="#F2F2F2"/>
<path d="M88.4434 18.8994C88.4434 15.4727 90.6092 13.4106 94.3772 13.4106C98.1452 13.4106 100.311 15.4727 100.311 18.8994V23.4685C100.311 26.8953 98.1304 28.9573 94.3772 28.9573C90.6241 28.9573 88.4434 26.8953 88.4434 23.4685V18.8994ZM97.804 18.8994C97.804 16.9709 96.6024 15.9325 94.4514 15.9325C92.3004 15.9325 91.0839 16.9858 91.0839 18.8994V23.4982C91.0839 25.4415 92.2855 26.4651 94.4514 26.4651C96.6172 26.4651 97.804 25.397 97.804 23.4982V18.8994Z" fill="#F2F2F2"/>
<path d="M107.299 14.1521C107.299 13.8258 107.403 13.7219 107.729 13.7219H108.411C108.738 13.7219 108.812 13.8258 108.812 14.1521V28.2153C108.812 28.5417 108.812 28.6455 108.411 28.6455H107.729C107.403 28.6455 107.299 28.5417 107.299 28.2153V14.1521Z" fill="#F2F2F2"/>
<path d="M122.325 13.7219C123.56 13.7219 124.745 14.2127 125.619 15.0863C126.492 15.9597 126.983 17.1446 126.983 18.38C126.983 19.6154 126.492 20.8003 125.619 21.6737C124.745 22.5473 123.56 23.0381 122.325 23.0381H117.874V28.2153C117.874 28.5417 117.8 28.6455 117.489 28.6455H116.792C116.48 28.6455 116.361 28.5417 116.361 28.2153V14.1521C116.361 13.8258 116.48 13.7219 116.792 13.7219H122.325ZM122.191 21.5694C122.616 21.5694 123.037 21.4858 123.429 21.3233C123.821 21.1607 124.178 20.9225 124.478 20.6222C124.778 20.322 125.017 19.9654 125.179 19.5731C125.342 19.1808 125.425 18.7602 125.425 18.3355C125.425 17.9108 125.342 17.4902 125.179 17.0978C125.017 16.7056 124.778 16.349 124.478 16.0487C124.178 15.7485 123.821 15.5102 123.429 15.3476C123.037 15.1852 122.616 15.1015 122.191 15.1015H117.741V21.5694H122.191Z" fill="#F2F2F2"/>
<path d="M138.571 13.4254C139.716 13.299 140.871 13.5454 141.866 14.128C142.859 14.7107 143.64 15.5984 144.089 16.6593C144.208 16.8967 144.089 17.0895 143.852 17.2082L143.199 17.5049C142.932 17.6087 142.828 17.5939 142.665 17.3121C142.329 16.5246 141.751 15.8645 141.015 15.4272C140.279 14.9898 139.423 14.7979 138.571 14.8792C136.064 14.8792 134.699 15.8731 134.699 17.6532C134.684 18.1972 134.867 18.7283 135.213 19.1481C135.559 19.5679 136.046 19.8485 136.583 19.9378C137.381 20.198 138.208 20.3574 139.045 20.4125C140.059 20.4665 141.059 20.6715 142.012 21.0207C142.744 21.252 143.373 21.7276 143.794 22.3678C144.215 23.0081 144.404 23.7739 144.326 24.5365C144.326 27.3106 142.309 28.9869 138.6 28.9869C137.384 29.126 136.156 28.8442 135.123 28.1882C134.089 27.5324 133.311 26.5418 132.919 25.3821C132.892 25.3293 132.878 25.2713 132.877 25.2122C132.876 25.1532 132.888 25.0947 132.912 25.0409C132.936 24.987 132.972 24.9391 133.016 24.9007C133.061 24.8621 133.114 24.8341 133.171 24.8184L133.823 24.581C133.875 24.5599 133.93 24.5499 133.986 24.5513C134.041 24.5528 134.096 24.5659 134.146 24.5896C134.196 24.6133 134.241 24.6472 134.277 24.6892C134.314 24.7311 134.341 24.7801 134.358 24.8332C134.689 25.6712 135.28 26.3818 136.042 26.862C136.805 27.342 137.701 27.5668 138.6 27.5034C141.404 27.5034 142.784 26.5243 142.784 24.5365C142.81 24.014 142.65 23.4991 142.332 23.0835C142.014 22.6679 141.559 22.3785 141.048 22.2668C140.28 22.0379 139.489 21.8985 138.689 21.8514L137.087 21.6438C136.586 21.5374 136.091 21.4036 135.604 21.2432C135.123 21.098 134.674 20.8612 134.283 20.546C133.89 20.1897 133.58 19.7512 133.374 19.2615C133.169 18.7718 133.074 18.2431 133.097 17.7126C133.2 15.1165 135.144 13.4254 138.571 13.4254Z" fill="#F2F2F2"/>
<path d="M152.323 23.5721C152.385 24.6212 152.847 25.6067 153.612 26.3272C154.377 27.0477 155.389 27.4488 156.439 27.4488C157.49 27.4488 158.501 27.0477 159.267 26.3272C160.032 25.6067 160.492 24.6212 160.556 23.5721V14.1521C160.556 13.8258 160.66 13.7219 160.986 13.7219H161.669C161.995 13.7219 162.099 13.8258 162.099 14.1521V23.5573C162.099 26.9247 160.111 28.9571 156.447 28.9571C152.783 28.9571 150.795 26.9247 150.795 23.5573V14.1521C150.795 13.8258 150.899 13.7219 151.21 13.7219H151.908C152.219 13.7219 152.323 13.8258 152.323 14.1521V23.5721Z" fill="#F2F2F2"/>
<path d="M182.57 13.722C182.896 13.722 183 13.8259 183 14.1522V28.2154C183 28.5418 182.896 28.6456 182.57 28.6456H181.947C181.635 28.6456 181.531 28.5418 181.531 28.2154V19.6559C181.531 18.4105 181.616 17.1665 181.783 15.9324H181.694C181.232 17.0608 180.69 18.1562 180.077 19.2108L176.888 24.8331C176.849 24.9307 176.781 25.0141 176.694 25.0724C176.606 25.1306 176.504 25.161 176.398 25.1595H175.983C175.876 25.1601 175.772 25.1294 175.682 25.0715C175.593 25.0135 175.522 24.9307 175.479 24.8331L172.245 19.1515C171.671 18.112 171.175 17.031 170.761 15.9175H170.672C170.824 17.1629 170.904 18.4161 170.91 19.6707V28.2154C170.91 28.5418 170.806 28.6456 170.479 28.6456H169.901C169.575 28.6456 169.471 28.5418 169.471 28.2154V14.1522C169.471 13.8259 169.575 13.722 169.901 13.722H170.435C170.557 13.7107 170.68 13.7373 170.785 13.7984C170.892 13.8595 170.976 13.9521 171.028 14.0632L176.22 23.2903L181.383 14.1522C181.546 13.8407 181.635 13.7962 181.961 13.7962L182.57 13.722Z" fill="#F2F2F2"/>
<path d="M12.9506 26.3908V37.1162C12.9506 37.5274 12.7873 37.9217 12.4965 38.2123C12.2059 38.5031 11.8116 38.6664 11.4004 38.6664C10.9893 38.6664 10.595 38.5031 10.3043 38.2123C10.0135 37.9217 9.85018 37.5274 9.85018 37.1162V26.4056C10.2819 26.7208 10.7993 26.8968 11.3336 26.91C11.916 26.9266 12.4867 26.7434 12.9506 26.3908ZM26.1534 23.2903C25.76 23.2903 25.3826 23.4467 25.1044 23.7248C24.8263 24.003 24.6699 24.3804 24.6699 24.7738V26.6429C24.6699 27.0542 24.8333 27.4485 25.124 27.7391C25.4146 28.0298 25.8089 28.1932 26.2202 28.1932C26.6314 28.1932 27.0257 28.0298 27.3163 27.7391C27.607 27.4485 27.7704 27.0542 27.7704 26.6429V24.848C27.7819 24.6352 27.7475 24.4225 27.6695 24.2243C27.5915 24.0261 27.4718 23.8469 27.3182 23.6992C27.1648 23.5514 26.9813 23.4384 26.7805 23.3678C26.5795 23.2973 26.3655 23.2709 26.1534 23.2903ZM6.48272 30.4554C5.94893 30.4394 5.43218 30.2638 4.99926 29.9511V40.7061C4.99926 41.1193 5.16336 41.5155 5.45548 41.8076C5.74759 42.0997 6.14378 42.2638 6.55689 42.2638C6.97001 42.2638 7.3662 42.0997 7.6583 41.8076C7.95043 41.5155 8.11453 41.1193 8.11453 40.7061V30.0252C7.6301 30.3384 7.05854 30.4891 6.48272 30.4554ZM21.3173 20.0712C21.1163 20.0611 20.9155 20.0921 20.7268 20.1621C20.5382 20.2322 20.3658 20.3399 20.22 20.4786C20.0743 20.6174 19.9585 20.7843 19.8793 20.9693C19.8002 21.1543 19.7594 21.3535 19.7597 21.5547V29.8175C19.7597 30.2307 19.9238 30.6269 20.2159 30.919C20.5081 31.2111 20.9042 31.3752 21.3173 31.3752C21.7305 31.3752 22.1267 31.2111 22.4188 30.919C22.7109 30.6269 22.875 30.2307 22.875 29.8175V21.6585C22.8868 21.4445 22.8521 21.2304 22.7732 21.031C22.6943 20.8316 22.5732 20.6517 22.418 20.5036C22.2629 20.3556 22.0776 20.2429 21.8748 20.1734C21.672 20.1039 21.4565 20.0791 21.2431 20.1009L21.3173 20.0712ZM16.3922 23.2458C15.8334 23.242 15.2896 23.0659 14.8346 22.7414V33.5262C14.8346 33.9393 14.9987 34.3356 15.2908 34.6277C15.583 34.9198 15.9791 35.0838 16.3922 35.0838C16.8054 35.0838 17.2015 34.9198 17.4937 34.6277C17.7858 34.3356 17.9499 33.9393 17.9499 33.5262V22.7563C17.4793 23.1068 16.9048 23.2896 16.3181 23.2755L16.3922 23.2458ZM3.11527 31.5087V1.37962C3.11136 1.01236 2.96272 0.66149 2.70163 0.403175C2.44054 0.14486 2.08809 -1.48335e-05 1.72081 1.13914e-09H1.39445C1.02718 -1.48335e-05 0.674722 0.14486 0.413633 0.403175C0.152544 0.66149 0.0039015 1.01236 0 1.37962V31.5087C0 31.8785 0.146922 32.2332 0.408426 32.4947C0.669931 32.7563 1.02463 32.9031 1.39445 32.9031H1.72081C2.09066 32.9031 2.44534 32.7563 2.70684 32.4947C2.96836 32.2332 3.11527 31.8785 3.11527 31.5087ZM6.6459 29.3132H6.31954C5.94971 29.3132 5.59502 29.1663 5.33351 28.9048C5.07201 28.6432 4.92509 28.2885 4.92509 27.9187V4.96959C4.929 4.60235 5.07763 4.25145 5.33872 3.99315C5.59981 3.73483 5.95227 3.58996 6.31954 3.58997H6.6459C7.01318 3.58996 7.36563 3.73483 7.62672 3.99315C7.88781 4.25145 8.03645 4.60235 8.04035 4.96959V27.9484C8.04035 28.3182 7.89343 28.6729 7.63193 28.9344C7.37042 29.196 7.01573 29.3428 6.6459 29.3428V29.3132ZM11.5562 25.7825H11.215C10.8491 25.7825 10.4982 25.6372 10.2394 25.3784C9.98072 25.1197 9.83534 24.7689 9.83534 24.4029V8.5299C9.83341 8.34747 9.86768 8.16648 9.93607 7.99738C10.0045 7.82828 10.1058 7.67444 10.2341 7.54476C10.3624 7.41508 10.5152 7.31212 10.6836 7.24187C10.852 7.17161 11.0325 7.13543 11.215 7.13544H11.5562C11.9235 7.13936 12.2743 7.28799 12.5326 7.54908C12.791 7.81016 12.9358 8.16262 12.9358 8.5299V24.4029C12.9358 24.7689 12.7904 25.1197 12.5317 25.3784C12.273 25.6372 11.9221 25.7825 11.5562 25.7825ZM16.4664 22.1481H16.1549C15.7876 22.1481 15.4351 22.0033 15.174 21.7449C14.9129 21.4866 14.7643 21.1357 14.7604 20.7684V12.2237C14.7483 12.0332 14.7753 11.8423 14.8399 11.6627C14.9045 11.4832 15.0053 11.3187 15.136 11.1797C15.2667 11.0405 15.4246 10.9298 15.5999 10.8542C15.7751 10.7787 15.964 10.7398 16.1549 10.7403H16.4812C16.8511 10.7403 17.2058 10.8871 17.4673 11.1486C17.7288 11.4102 17.8757 11.7649 17.8757 12.1347V20.7388C17.8776 20.9232 17.8431 21.1061 17.7738 21.277C17.7047 21.4479 17.6023 21.6033 17.4725 21.7345C17.3428 21.8655 17.1886 21.9694 17.0183 22.0405C16.8481 22.1116 16.6656 22.1481 16.4812 22.1481H16.4664ZM21.3915 18.9586H21.0651C20.6953 18.9586 20.3406 18.8118 20.0791 18.5502C19.8175 18.2887 19.6707 17.934 19.6707 17.5642V15.3538C19.6745 14.9865 19.8232 14.6357 20.0843 14.3774C20.3454 14.119 20.6978 13.9742 21.0651 13.9742H21.3915C21.7588 13.9742 22.1113 14.119 22.3724 14.3774C22.6334 14.6357 22.7821 14.9865 22.7859 15.3538V17.5642C22.7859 17.9315 22.6412 18.2839 22.3827 18.545C22.1245 18.8061 21.7736 18.9548 21.4063 18.9586H21.3915Z" fill="#F2F2F2"/>
</svg>