<svg xmlns="http://www.w3.org/2000/svg" width="183" height="36" viewBox="0 0 183 36" fill="none">
<path d="M27.4528 15.7886C26.9415 16.3031 26.55 16.9239 26.3061 17.6068C26.0622 18.2899 25.9719 19.0182 26.0416 19.7401L26.0174 19.7159C26.0891 20.5657 25.9745 21.4207 25.6816 22.2217C25.3887 23.0225 24.9246 23.7498 24.3217 24.3528C23.7186 24.9558 22.9913 25.42 22.1904 25.7127C21.3896 26.0056 20.5344 26.1203 19.6847 26.0485L19.709 26.0728C18.6926 25.9782 17.6717 26.1994 16.7855 26.7062C15.8994 27.2131 15.1911 27.9808 14.7574 28.905C14.3237 29.8291 14.1854 30.8644 14.3616 31.87C14.5379 32.8755 15.0199 33.8022 15.7421 34.5237C16.4643 35.2452 17.3914 35.7264 18.397 35.9017C19.4027 36.077 20.4379 35.9378 21.3616 35.5033C22.2854 35.0686 23.0525 34.3598 23.5585 33.4731C24.0645 32.5865 24.2849 31.5655 24.1893 30.5491L24.215 30.5734C24.1432 29.7237 24.2577 28.8685 24.5506 28.0676C24.8435 27.2668 25.3077 26.5395 25.9107 25.9364C26.5137 25.3335 27.241 24.8693 28.0418 24.5765C28.8428 24.2836 29.6978 24.169 30.5476 24.2407L30.522 24.2165C31.3522 24.2911 32.188 24.1549 32.9517 23.8206C33.7153 23.4863 34.3823 22.9646 34.8906 22.304C35.399 21.6433 35.7325 20.8649 35.8598 20.0411C35.9873 19.2172 35.9048 18.3746 35.6198 17.591C35.3349 16.8076 34.8568 16.1088 34.2299 15.5593C33.6029 15.0098 32.8474 14.6275 32.0334 14.4478C31.2193 14.2681 30.3731 14.2967 29.573 14.531C28.773 14.7655 28.0452 15.198 27.4569 15.7886H27.4528Z" fill="#F2F2F2"/>
<path d="M17.4988 22.8915L17.4732 22.8672C18.1953 22.9399 18.9247 22.8513 19.6085 22.6076C20.2922 22.364 20.9134 21.9715 21.4268 21.4585C21.9402 20.9454 22.3333 20.3246 22.5773 19.641C22.8215 18.9574 22.9107 18.2282 22.8385 17.5059L22.8642 17.5302C22.7924 16.6804 22.9071 15.8253 23.1998 15.0244C23.4927 14.2235 23.9569 13.4962 24.5598 12.8932C25.1629 12.2903 25.8902 11.826 26.691 11.5333C27.492 11.2403 28.347 11.1258 29.1968 11.1975L29.1712 11.1732C30.1877 11.2687 31.2089 11.0482 32.0955 10.542C32.9823 10.0357 33.6911 9.26825 34.1255 8.3443C34.5599 7.42035 34.6987 6.38488 34.5231 5.37912C34.3474 4.37335 33.8658 3.44628 33.1437 2.72432C32.4218 2.00238 31.4947 1.5207 30.489 1.34502C29.4832 1.16933 28.4478 1.30816 27.5238 1.7426C26.5998 2.17702 25.8325 2.8859 25.3261 3.77254C24.8198 4.65917 24.5994 5.6804 24.6949 6.69691L24.6706 6.67128C24.7425 7.52106 24.6281 8.37631 24.3354 9.1773C24.0426 9.97828 23.5784 10.7057 22.9755 11.3088C22.3724 11.9117 21.645 12.3759 20.844 12.6687C20.0429 12.9614 19.1877 13.0759 18.3379 13.0039L18.3622 13.0296C17.6401 12.9569 16.9106 13.0455 16.2269 13.2891C15.5432 13.5327 14.922 13.9252 14.4086 14.4383C13.8951 14.9514 13.5021 15.5722 13.2579 16.2558C13.0139 16.9394 12.9247 17.6686 12.9969 18.3909L12.9726 18.3666C13.0441 19.2163 12.9293 20.0713 12.6364 20.8721C12.3434 21.6728 11.8793 22.4001 11.2764 23.003C10.6734 23.606 9.94619 24.07 9.14541 24.3631C8.34465 24.656 7.4896 24.7708 6.63993 24.6993L6.66421 24.7236C5.64769 24.628 4.62647 24.8485 3.73983 25.3548C2.8532 25.8611 2.14432 26.6285 1.70989 27.5525C1.27546 28.4765 1.13661 29.5119 1.3123 30.5177C1.48799 31.5234 1.96968 32.4505 2.69162 33.1724C3.41357 33.8944 4.34065 34.3761 5.34641 34.5517C6.35218 34.7274 7.38765 34.5886 8.31161 34.1541C9.23555 33.7197 10.003 33.0109 10.5093 32.1243C11.0156 31.2375 11.236 30.2164 11.1405 29.1999L11.1661 29.2241C11.0944 28.3743 11.209 27.5193 11.5019 26.7183C11.7947 25.9175 12.2589 25.1902 12.8618 24.5872C13.4649 23.9842 14.1922 23.52 14.993 23.2273C15.794 22.9344 16.649 22.8197 17.4988 22.8915Z" fill="#F2F2F2"/>
<path d="M8.4587 20.1838C8.97004 19.6695 9.36152 19.0487 9.60522 18.3656C9.84892 17.6826 9.93882 16.9541 9.86851 16.2323L9.89413 16.2566C9.82236 15.4066 9.93698 14.5512 10.23 13.7501C10.5231 12.949 10.9874 12.2216 11.5908 11.6185C12.1941 11.0155 12.9216 10.5514 13.7229 10.2587C14.5241 9.96604 15.3796 9.85177 16.2295 9.92392L16.2039 9.89963C17.22 9.99484 18.2409 9.77428 19.1271 9.26804C20.0133 8.76182 20.7217 7.99455 21.156 7.07089C21.5901 6.14722 21.7288 5.11212 21.5532 4.10673C21.3775 3.10135 20.8959 2.17462 20.1743 1.45294C19.4526 0.731252 18.5258 0.249732 17.5205 0.0740526C16.5151 -0.10164 15.4799 0.0370738 14.5564 0.47124C13.6326 0.905407 12.8654 1.61391 12.3592 2.50013C11.8529 3.38636 11.6323 4.40716 11.7276 5.42333L11.7033 5.39905C11.7751 6.24878 11.6604 7.10393 11.3675 7.90481C11.0746 8.70568 10.6105 9.43299 10.0075 10.036C9.40457 10.639 8.67724 11.1031 7.87636 11.3959C7.07549 11.6888 6.22035 11.8035 5.37062 11.7317L5.3949 11.756C4.56463 11.6815 3.72898 11.8179 2.96542 12.1524C2.20186 12.4868 1.53507 13.0086 1.02685 13.6694C0.518632 14.3301 0.185432 15.1085 0.0581041 15.9323C-0.0692101 16.7561 0.013476 17.5988 0.2985 18.3821C0.583523 19.1655 1.06168 19.8642 1.68865 20.4136C2.31562 20.963 3.07111 21.3452 3.88513 21.5249C4.69913 21.7045 5.54533 21.6758 6.3453 21.4414C7.14526 21.207 7.8731 20.7744 8.46139 20.1838H8.4587Z" fill="#F2F2F2"/>
<path d="M50.248 6.72803H54.2549V26.2265H50.248V6.72803Z" fill="#F2F2F2"/>
<path d="M56.5256 19.5499C56.5201 18.1487 56.9304 16.7772 57.7048 15.6095C58.4792 14.4417 59.5828 13.53 60.8757 12.9899C62.1687 12.4497 63.5928 12.3055 64.9678 12.5755C66.3428 12.8454 67.6068 13.5173 68.5996 14.5062C69.5924 15.4949 70.2694 16.7562 70.5449 18.1301C70.8203 19.504 70.6818 20.9288 70.1469 22.2239C69.612 23.5189 68.7047 24.6263 67.54 25.4053C66.3752 26.1844 65.0056 26.6003 63.6043 26.6003C62.6742 26.6109 61.7513 26.436 60.8895 26.0857C60.0277 25.7355 59.2444 25.2171 58.5854 24.5607C57.9262 23.9042 57.4047 23.123 57.0511 22.2627C56.6973 21.4023 56.5187 20.4801 56.5256 19.5499ZM66.6762 19.5499C66.6595 18.9459 66.4651 18.3603 66.1174 17.8661C65.7696 17.3721 65.2839 16.9913 64.7211 16.7718C64.1581 16.5522 63.543 16.5034 62.9525 16.6315C62.362 16.7597 61.8224 17.0589 61.4011 17.4921C60.9799 17.9252 60.6955 18.4729 60.5839 19.0668C60.4722 19.6605 60.5379 20.2741 60.7731 20.8307C61.0082 21.3874 61.4022 21.8623 61.9056 22.1962C62.4093 22.5301 63.0002 22.7081 63.6043 22.7081C64.0181 22.7192 64.4297 22.6443 64.8132 22.4884C65.1966 22.3324 65.5436 22.0987 65.8322 21.8021C66.1208 21.5053 66.3448 21.152 66.49 20.7644C66.6353 20.3768 66.6987 19.9633 66.6762 19.5499Z" fill="#F2F2F2"/>
<path d="M86.6531 12.8718V25.5533C86.6531 30.0404 83.1536 31.9373 79.6014 31.9373C78.3508 32.0309 77.0984 31.7782 75.9818 31.2071C74.8652 30.6359 73.9275 29.7683 73.2714 28.6994L76.69 26.723C76.9658 27.2802 77.4052 27.7398 77.9493 28.0405C78.4935 28.3411 79.1165 28.4685 79.7349 28.4053C80.1302 28.4601 80.5328 28.4253 80.9128 28.3035C81.2928 28.1816 81.6405 27.9759 81.9303 27.7016C82.2201 27.4272 82.4445 27.0913 82.5869 26.7184C82.7293 26.3457 82.7859 25.9457 82.7529 25.5479V24.327C82.2837 24.901 81.6866 25.3572 81.0092 25.6587C80.3318 25.9602 79.5933 26.0988 78.8526 26.0633C77.0904 26.0077 75.4191 25.2687 74.1922 24.0024C72.9653 22.7363 72.2793 21.0424 72.2793 19.2794C72.2793 17.5164 72.9653 15.8224 74.1922 14.5563C75.4191 13.29 77.0904 12.551 78.8526 12.4954C79.5933 12.4599 80.3318 12.5985 81.0092 12.9C81.6866 13.2015 82.2837 13.6577 82.7529 14.2317V12.8691L86.6531 12.8718ZM82.7542 19.2814C82.7812 18.6357 82.6142 17.9966 82.2749 17.4466C81.9356 16.8965 81.4394 16.4606 80.8502 16.1949C80.2611 15.9291 79.606 15.8459 78.9691 15.9557C78.3322 16.0655 77.7427 16.3634 77.2765 16.8112C76.8104 17.2588 76.4889 17.8357 76.3533 18.4676C76.2179 19.0995 76.2745 19.7576 76.5163 20.357C76.7579 20.9564 77.1734 21.4699 77.7093 21.8312C78.2451 22.1925 78.8769 22.3851 79.5231 22.3843C79.9442 22.4137 80.3666 22.3546 80.7634 22.2108C81.1601 22.067 81.5224 21.8416 81.8267 21.5494C82.1311 21.257 82.3709 20.9042 82.5307 20.5135C82.6904 20.123 82.7666 19.7032 82.7542 19.2814Z" fill="#F2F2F2"/>
<path d="M88.9221 19.5499C88.9165 18.1487 89.3268 16.7772 90.1013 15.6095C90.8757 14.4417 91.9792 13.53 93.2722 12.9899C94.5652 12.4497 95.9893 12.3055 97.3643 12.5755C98.7393 12.8454 100.003 13.5173 100.996 14.5062C101.989 15.4949 102.666 16.7562 102.941 18.1301C103.217 19.504 103.078 20.9288 102.543 22.2239C102.008 23.5189 101.101 24.6263 99.9365 25.4053C98.7717 26.1844 97.4021 26.6003 96.0008 26.6003C95.0707 26.6109 94.1477 26.436 93.286 26.0857C92.4242 25.7355 91.6409 25.2171 90.9819 24.5607C90.3227 23.9042 89.8011 23.123 89.4475 22.2627C89.0938 21.4023 88.9152 20.4801 88.9221 19.5499ZM99.0727 19.5499C99.0559 18.9459 98.8615 18.3603 98.5139 17.8661C98.1661 17.3721 97.6804 16.9913 97.1176 16.7718C96.5546 16.5522 95.9394 16.5034 95.349 16.6315C94.7585 16.7597 94.2189 17.0589 93.7976 17.4921C93.3764 17.9252 93.092 18.4729 92.9803 19.0668C92.8686 19.6605 92.9344 20.2741 93.1696 20.8307C93.4047 21.3874 93.7986 21.8623 94.3021 22.1962C94.8057 22.5301 95.3965 22.7081 96.0008 22.7081C96.4145 22.7192 96.8262 22.6443 97.2096 22.4884C97.5931 22.3324 97.9401 22.0987 98.2287 21.8021C98.5172 21.5053 98.7413 21.152 98.8865 20.7644C99.0318 20.3768 99.0952 19.9633 99.0727 19.5499Z" fill="#F2F2F2"/>
<path d="M104.947 9.29252C104.947 8.81703 105.088 8.35223 105.352 7.95689C105.617 7.56154 105.992 7.25339 106.431 7.07144C106.871 6.88947 107.354 6.84186 107.82 6.93462C108.287 7.02739 108.715 7.25636 109.051 7.59258C109.388 7.92879 109.616 8.35715 109.709 8.82351C109.802 9.28985 109.754 9.77323 109.573 10.2125C109.391 10.6518 109.082 11.0273 108.687 11.2915C108.292 11.5556 107.827 11.6966 107.351 11.6966C106.716 11.6903 106.108 11.435 105.658 10.9855C105.209 10.536 104.954 9.92816 104.947 9.29252ZM105.352 12.8717H109.36V26.2277H105.347L105.352 12.8717Z" fill="#F2F2F2"/>
<path d="M126.66 19.5499C126.707 20.4326 126.578 21.3157 126.282 22.1485C125.986 22.9813 125.528 23.7473 124.934 24.4026C124.341 25.0577 123.624 25.5893 122.825 25.9665C122.025 26.3435 121.159 26.559 120.276 26.6003C119.534 26.6407 118.792 26.5155 118.103 26.2337C117.415 25.9518 116.799 25.5203 116.298 24.9706V31.569H112.291V12.8719H116.298V14.1265C116.799 13.5772 117.416 13.146 118.104 12.8644C118.792 12.5827 119.534 12.4577 120.276 12.4982C121.159 12.5393 122.026 12.7546 122.825 13.1318C123.625 13.509 124.342 14.0406 124.935 14.696C125.529 15.3514 125.987 16.1177 126.283 16.9507C126.578 17.7837 126.707 18.667 126.66 19.5499ZM122.653 19.5499C122.638 18.9249 122.438 18.3183 122.079 17.806C121.721 17.2939 121.219 16.8989 120.637 16.6706C120.055 16.4422 119.418 16.3906 118.807 16.5222C118.196 16.6538 117.637 16.9627 117.2 17.4104C116.764 17.8581 116.469 18.4245 116.353 19.039C116.237 19.6534 116.304 20.2883 116.547 20.8645C116.79 21.4406 117.198 21.9323 117.719 22.278C118.24 22.6237 118.851 22.8081 119.476 22.808C119.906 22.8271 120.334 22.7552 120.734 22.5971C121.133 22.4391 121.495 22.1983 121.795 21.8907C122.095 21.583 122.326 21.2155 122.474 20.8121C122.622 20.4087 122.683 19.9785 122.653 19.5499Z" fill="#F2F2F2"/>
<path d="M139.024 22.2199C139.024 25.2918 136.354 26.6004 133.47 26.6004C132.304 26.7059 131.134 26.4596 130.11 25.8928C129.086 25.3262 128.256 24.4654 127.727 23.4219L131.198 21.4455C131.338 21.9278 131.64 22.3475 132.052 22.6342C132.465 22.921 132.964 23.0577 133.464 23.0212C134.425 23.0212 134.906 22.7271 134.906 22.1942C134.906 20.7237 128.335 21.4995 128.335 16.8788C128.335 13.9661 130.793 12.4983 133.571 12.4983C134.615 12.4652 135.648 12.7129 136.564 13.2155C137.481 13.7181 138.245 14.4572 138.778 15.3557L135.36 17.1985C135.21 16.8487 134.96 16.5507 134.642 16.3417C134.324 16.1328 133.951 16.0221 133.571 16.0235C132.876 16.0235 132.448 16.2933 132.448 16.7709C132.454 18.294 139.024 17.2781 139.024 22.2199Z" fill="#F2F2F2"/>
<path d="M153.662 12.8718V26.2279H149.655V24.9719C149.193 25.5261 148.606 25.9628 147.942 26.2461C147.278 26.5294 146.558 26.6512 145.837 26.6016C143.139 26.6016 140.846 24.6791 140.846 21.0703V12.8718H144.853V20.4834C144.819 20.8015 144.855 21.1232 144.959 21.4258C145.062 21.7285 145.23 22.0051 145.452 22.2362C145.673 22.4673 145.941 22.6474 146.239 22.7641C146.536 22.8808 146.856 22.9312 147.176 22.9118C148.645 22.9118 149.659 22.0578 149.659 20.161V12.8759L153.662 12.8718Z" fill="#F2F2F2"/>
<path d="M176.636 18.0266V26.2264H172.629V18.3733C172.629 17.0377 171.989 16.1838 170.707 16.1838C169.371 16.1838 168.623 17.1187 168.623 18.6944V26.2264H164.617V18.3733C164.617 17.0377 163.976 16.1838 162.693 16.1838C161.358 16.1838 160.61 17.1187 160.61 18.6944V26.2264H156.604V12.8704H160.61V14.0981C161.026 13.5534 161.571 13.1214 162.196 12.8418C162.821 12.562 163.507 12.4434 164.189 12.4967C164.875 12.4631 165.557 12.6078 166.171 12.9166C166.784 13.2253 167.306 13.6878 167.688 14.2586C168.132 13.6613 168.72 13.1865 169.397 12.8783C170.074 12.5702 170.819 12.4389 171.561 12.4967C174.627 12.498 176.636 14.6876 176.636 18.0266Z" fill="#F2F2F2"/>
<path d="M180.026 12.7893C181.668 12.7893 183 11.4581 183 9.81594C183 8.17376 181.668 6.84253 180.026 6.84253C178.384 6.84253 177.053 8.17376 177.053 9.81594C177.053 11.4581 178.384 12.7893 180.026 12.7893Z" fill="#F2F2F2"/>
</svg>