<svg xmlns="http://www.w3.org/2000/svg" width="183" height="37" viewBox="0 0 183 37" fill="none">
<path d="M58.8278 29.8649C57.9028 29.9152 56.9879 29.6522 56.2308 29.1185C55.9145 28.884 55.6599 28.5759 55.4892 28.2211C55.3184 27.866 55.2368 27.4749 55.2511 27.0813V12.6657C55.2436 12.6047 55.25 12.5427 55.27 12.4845C55.2899 12.4263 55.3229 12.3736 55.3665 12.3301C55.41 12.2865 55.4627 12.2536 55.5209 12.2337C55.579 12.2136 55.6411 12.2072 55.702 12.2147H58.3146C58.6101 12.2147 58.75 12.3702 58.75 12.6657V25.9617C58.75 26.5526 59.0144 26.8481 59.5587 26.8481C59.7894 26.8576 60.0202 26.8314 60.2429 26.7703C60.5539 26.7703 60.725 26.8636 60.7405 27.1435L60.9738 29.0874C60.985 29.1442 60.9839 29.2025 60.9707 29.2588C60.9575 29.3149 60.9323 29.3678 60.8968 29.4133C60.8615 29.4591 60.8167 29.4967 60.7657 29.5236C60.7146 29.5505 60.6583 29.5662 60.6006 29.5695C60.0283 29.7586 59.4304 29.8582 58.8278 29.8649Z" fill="#F2F2F2"/>
<path d="M73.5242 28.201C72.2116 29.2857 70.5618 29.8789 68.8589 29.8789C67.1561 29.8789 65.5065 29.2857 64.1937 28.201C63.04 27.0362 62.3926 25.463 62.3926 23.8234C62.3926 22.1839 63.04 20.6106 64.1937 19.4459C65.509 18.3668 67.1577 17.7771 68.8589 17.7771C70.5602 17.7771 72.2089 18.3668 73.5242 19.4459C74.6515 20.6214 75.2808 22.187 75.2808 23.8157C75.2808 25.4443 74.6515 27.01 73.5242 28.1855V28.201ZM66.6507 26.1483C67.26 26.7002 68.0525 27.0058 68.8745 27.0058C69.6965 27.0058 70.4891 26.7002 71.0983 26.1483C71.6497 25.5144 71.9533 24.7025 71.9533 23.8623C71.9533 23.0223 71.6497 22.2103 71.0983 21.5763C70.4891 21.0246 69.6965 20.7189 68.8745 20.7189C68.0525 20.7189 67.26 21.0246 66.6507 21.5763C66.0994 22.2103 65.7957 23.0223 65.7957 23.8623C65.7957 24.7025 66.0994 25.5144 66.6507 26.1483Z" fill="#F2F2F2"/>
<path d="M89.6673 18.1706C89.9627 18.1706 90.1027 18.3261 90.1027 18.6216V29.7716C90.1299 30.5242 89.989 31.2733 89.6904 31.9645C89.3918 32.6559 88.943 33.2721 88.3765 33.7681C87.1191 34.8404 85.5021 35.396 83.8512 35.3232C82.3602 35.3756 80.8889 34.9685 79.6369 34.1569C79.1023 33.8059 78.6456 33.3486 78.2952 32.8136C77.9447 32.2785 77.708 31.6772 77.5998 31.0467C77.5998 30.7357 77.5998 30.5958 78.0196 30.5958H80.6322C80.7431 30.5995 80.8507 30.6354 80.9417 30.6989C81.0328 30.7623 81.1035 30.8506 81.1454 30.9534C81.3149 31.4257 81.6526 31.819 82.094 32.0575C82.6319 32.3351 83.2306 32.4742 83.8357 32.4619C84.2008 32.4819 84.5662 32.4289 84.9107 32.306C85.2552 32.1834 85.5716 31.993 85.8417 31.7465C86.0885 31.4887 86.2804 31.1834 86.4061 30.8494C86.5317 30.5154 86.5883 30.1592 86.5726 29.8027V28.823C85.6372 29.5109 84.4988 29.8667 83.338 29.8338C82.5257 29.8633 81.7158 29.7285 80.9567 29.4372C80.1979 29.1458 79.5057 28.7043 78.9216 28.1387C77.8005 26.9789 77.1738 25.4288 77.1738 23.8156C77.1738 22.2025 77.8005 20.6524 78.9216 19.4924C79.5085 18.932 80.2016 18.4947 80.96 18.2062C81.7186 17.9178 82.5271 17.784 83.338 17.8129C84.5323 17.7814 85.7015 18.1602 86.6504 18.886V18.6371C86.6432 18.5776 86.6494 18.5171 86.6686 18.4602C86.6877 18.4034 86.7193 18.3515 86.7609 18.3082C86.8026 18.265 86.8535 18.2317 86.9096 18.2106C86.9659 18.1894 87.0261 18.1812 87.0858 18.1862L89.6673 18.1706ZM83.6335 27.0657C84.0341 27.0782 84.4327 27.0024 84.8008 26.8438C85.1688 26.6853 85.4977 26.4479 85.764 26.1482C86.281 25.4806 86.5616 24.66 86.5616 23.8156C86.5616 22.9712 86.281 22.1507 85.764 21.4829C85.4987 21.1875 85.1718 20.9534 84.8065 20.7976C84.4411 20.6418 84.0461 20.5679 83.6491 20.581C83.2438 20.5682 82.8407 20.6437 82.4675 20.8021C82.0943 20.9606 81.7599 21.1982 81.4875 21.4985C80.9148 22.1372 80.6135 22.974 80.6477 23.8311C80.6197 24.6799 80.9143 25.5078 81.4719 26.1482C81.745 26.4477 82.0795 26.6849 82.4526 26.8432C82.8256 27.0015 83.2284 27.0774 83.6335 27.0657Z" fill="#F2F2F2"/>
<path d="M103.522 28.2011C102.207 29.2802 100.558 29.8699 98.8569 29.8699C97.1556 29.8699 95.5069 29.2802 94.1916 28.2011C93.0634 27.023 92.4336 25.4549 92.4336 23.8236C92.4336 22.1924 93.0634 20.6241 94.1916 19.446C95.5082 18.3697 97.1564 17.7817 98.8569 17.7817C100.557 17.7817 102.206 18.3697 103.522 19.446C104.649 20.6215 105.279 22.1871 105.279 23.8158C105.279 25.4444 104.649 27.0101 103.522 28.1856V28.2011ZM96.6331 26.1484C96.9312 26.4321 97.2827 26.6537 97.6671 26.8005C98.0515 26.9473 98.4611 27.0165 98.8724 27.0037C99.2811 27.0143 99.6879 26.9443 100.07 26.7975C100.451 26.6507 100.8 26.4302 101.096 26.1484C101.639 25.5102 101.936 24.7 101.936 23.8624C101.936 23.0249 101.639 22.2147 101.096 21.5765C100.8 21.2948 100.451 21.0742 100.07 20.9275C99.6879 20.7807 99.2811 20.7106 98.8724 20.7212C98.4611 20.7086 98.0515 20.7776 97.6671 20.9244C97.2827 21.0712 96.9312 21.293 96.6331 21.5765C96.0908 22.2147 95.7931 23.0249 95.7931 23.8624C95.7931 24.7 96.0908 25.5102 96.6331 26.1484Z" fill="#F2F2F2"/>
<path d="M110.892 15.5272C110.481 15.8871 109.954 16.0853 109.407 16.0853C108.861 16.0853 108.333 15.8871 107.922 15.5272C107.736 15.3513 107.587 15.1392 107.486 14.9039C107.384 14.6687 107.332 14.415 107.332 14.1587C107.332 13.9025 107.384 13.649 107.486 13.4135C107.587 13.1783 107.736 12.9661 107.922 12.7903C108.338 12.4394 108.864 12.2471 109.407 12.2471C109.951 12.2471 110.477 12.4394 110.892 12.7903C111.079 12.9661 111.227 13.1783 111.329 13.4135C111.43 13.649 111.483 13.9025 111.483 14.1587C111.483 14.415 111.43 14.6687 111.329 14.9039C111.227 15.1392 111.079 15.3513 110.892 15.5272ZM111.219 29.8651C110.295 29.9105 109.381 29.648 108.622 29.1187C108.31 28.8808 108.06 28.5716 107.893 28.2172C107.725 27.8628 107.644 27.4734 107.658 27.0815V18.6218C107.65 18.5609 107.657 18.4988 107.677 18.4407C107.697 18.3825 107.73 18.3298 107.773 18.2863C107.817 18.2427 107.869 18.2097 107.928 18.1898C107.986 18.1698 108.048 18.1634 108.109 18.1709H110.721C111.017 18.1709 111.157 18.3264 111.157 18.6218V25.9619C111.157 26.5528 111.421 26.8483 111.95 26.8483C112.186 26.8568 112.422 26.8305 112.65 26.7705C112.961 26.7705 113.132 26.8638 113.147 27.1437L113.381 29.0876C113.392 29.1443 113.391 29.2027 113.377 29.2589C113.364 29.3151 113.339 29.368 113.304 29.4135C113.268 29.4592 113.223 29.4969 113.172 29.5238C113.121 29.5507 113.065 29.5664 113.007 29.5697C112.43 29.7598 111.827 29.8595 111.219 29.8651Z" fill="#F2F2F2"/>
<path d="M122.993 17.7976C123.809 17.7654 124.623 17.8974 125.387 18.1859C126.151 18.4745 126.85 18.9135 127.441 19.4771C128.54 20.6574 129.152 22.2105 129.152 23.8236C129.152 25.4366 128.54 26.9899 127.441 28.17C126.852 28.7387 126.155 29.1821 125.391 29.4733C124.626 29.7648 123.811 29.898 122.993 29.8651C121.829 29.891 120.687 29.5362 119.743 28.8543V34.4681C119.743 34.7636 119.587 34.9036 119.292 34.9036H116.679C116.62 34.9147 116.558 34.9112 116.5 34.8933C116.443 34.8752 116.39 34.8435 116.347 34.8006C116.304 34.7577 116.272 34.7051 116.254 34.6471C116.236 34.5893 116.233 34.5278 116.244 34.4681V21.7164C116.262 21.5917 116.251 21.4645 116.212 21.3447C116.172 21.2252 116.105 21.1163 116.016 21.0272C115.927 20.9381 115.818 20.8711 115.698 20.8314C115.579 20.7918 115.451 20.7807 115.326 20.7989H114.813C114.471 20.7989 114.3 20.6745 114.3 20.4257V18.5907C114.292 18.4772 114.323 18.3643 114.388 18.271C114.453 18.1775 114.548 18.1092 114.658 18.0775C115.196 17.882 115.765 17.7872 116.337 17.7976C116.908 17.747 117.481 17.8682 117.982 18.1451C118.484 18.4223 118.891 18.8428 119.152 19.3527C119.653 18.846 120.252 18.4468 120.912 18.1794C121.573 17.912 122.281 17.782 122.993 17.7976ZM120.567 26.1484C120.844 26.4383 121.177 26.6689 121.546 26.8264C121.915 26.984 122.312 27.0651 122.713 27.0651C123.114 27.0651 123.511 26.984 123.88 26.8264C124.249 26.6689 124.582 26.4383 124.859 26.1484C125.443 25.497 125.75 24.6434 125.714 23.7691C125.755 22.8942 125.448 22.0386 124.859 21.3898C124.582 21.1001 124.249 20.8695 123.88 20.712C123.511 20.5543 123.114 20.4731 122.713 20.4731C122.312 20.4731 121.915 20.5543 121.546 20.712C121.177 20.8695 120.844 21.1001 120.567 21.3898C120.001 22.0501 119.707 22.9003 119.743 23.7691C119.711 24.6373 120.005 25.4859 120.567 26.1484Z" fill="#F2F2F2"/>
<path d="M136.488 29.8648C135.092 29.9222 133.708 29.5883 132.491 28.9006C132.003 28.6067 131.588 28.2066 131.275 27.7301C130.963 27.2536 130.762 26.7129 130.688 26.1481C130.688 25.8371 130.796 25.6816 131.138 25.6816H133.424C133.533 25.6859 133.639 25.72 133.729 25.7805C133.82 25.8408 133.892 25.925 133.938 26.0237C134.264 26.8635 135.119 27.2833 136.488 27.2833C136.965 27.3053 137.441 27.209 137.872 27.0034C138.021 26.9362 138.149 26.8299 138.242 26.6957C138.335 26.5615 138.39 26.4044 138.401 26.2414C138.401 25.8371 138.152 25.5572 137.654 25.3706C137.064 25.1742 136.454 25.0437 135.835 24.9818C135.102 24.8988 134.374 24.7689 133.658 24.593C132.961 24.4353 132.327 24.0724 131.838 23.5511C131.55 23.1969 131.339 22.7871 131.216 22.3475C131.093 21.9079 131.062 21.4476 131.125 20.9955C131.188 20.5433 131.343 20.1088 131.58 19.7192C131.818 19.3295 132.134 18.993 132.507 18.7304C133.628 18.0164 134.943 17.6685 136.27 17.7351C137.555 17.6917 138.827 18.0096 139.94 18.6526C140.389 18.9069 140.775 19.2578 141.071 19.6802C141.367 20.1026 141.565 20.5856 141.651 21.0941C141.651 21.4051 141.511 21.5606 141.231 21.5606H138.929C138.833 21.5664 138.736 21.5427 138.653 21.4928C138.57 21.4429 138.504 21.3689 138.463 21.2807C138.309 20.9124 138.02 20.6173 137.654 20.4565C137.242 20.241 136.782 20.1338 136.317 20.1455C135.861 20.1208 135.406 20.2117 134.995 20.4098C134.85 20.4658 134.725 20.5638 134.637 20.6913C134.548 20.8188 134.499 20.97 134.497 21.1252C134.507 21.3379 134.585 21.5418 134.72 21.7069C134.854 21.8721 135.038 21.9897 135.244 22.0427C135.841 22.2679 136.462 22.4243 137.094 22.5092C137.822 22.605 138.543 22.74 139.256 22.9135C139.953 23.0714 140.587 23.4342 141.075 23.9554C141.337 24.2427 141.539 24.5787 141.67 24.9445C141.8 25.3101 141.858 25.6981 141.837 26.0859C141.851 26.6235 141.725 27.1553 141.471 27.6297C141.218 28.1038 140.846 28.5042 140.391 28.7918C139.229 29.5377 137.868 29.9119 136.488 29.8648Z" fill="#F2F2F2"/>
<path d="M158.278 29.0876C158.287 29.1428 158.284 29.1993 158.272 29.2535C158.258 29.308 158.235 29.359 158.2 29.4039C158.168 29.4489 158.126 29.4867 158.077 29.5151C158.029 29.5436 157.976 29.5621 157.92 29.5697C157.353 29.7551 156.76 29.8547 156.163 29.8652C155.572 29.9264 154.975 29.8341 154.431 29.5971C153.885 29.3601 153.411 28.9864 153.053 28.5122C151.955 29.4566 150.534 29.9412 149.088 29.8652C148.416 29.8961 147.745 29.7862 147.119 29.5425C146.492 29.2988 145.923 28.9267 145.449 28.45C144.977 27.9507 144.612 27.3613 144.374 26.7173C144.137 26.0734 144.031 25.3881 144.065 24.7023V18.6219C144.065 18.3264 144.205 18.1709 144.5 18.1709H147.113C147.408 18.1709 147.548 18.3264 147.548 18.6219V24.2357C147.52 24.9352 147.758 25.6191 148.217 26.1485C148.445 26.3911 148.724 26.5817 149.032 26.7079C149.339 26.834 149.672 26.8925 150.005 26.8794C150.346 26.8943 150.686 26.8416 151.007 26.724C151.327 26.6066 151.621 26.4269 151.871 26.1952C152.108 25.951 152.293 25.6608 152.412 25.3425C152.534 25.0242 152.586 24.6845 152.571 24.3446V18.6219C152.571 18.3264 152.711 18.1709 153.006 18.1709H155.65C155.945 18.1709 156.085 18.3264 156.085 18.6219V25.9463C156.085 26.5528 156.35 26.8483 156.863 26.8483C157.104 26.8576 157.345 26.8315 157.578 26.7705C157.637 26.7541 157.7 26.7511 157.759 26.762C157.819 26.7727 157.875 26.797 157.925 26.8329C157.975 26.8688 158.015 26.9155 158.045 26.9693C158.073 27.0231 158.088 27.0828 158.091 27.1438L158.278 29.0876Z" fill="#F2F2F2"/>
<path d="M182.988 29.0877C183.002 29.1433 183.003 29.2015 182.992 29.2578C182.98 29.3139 182.957 29.3671 182.922 29.4131C182.888 29.4592 182.845 29.4971 182.793 29.5242C182.744 29.5514 182.688 29.5669 182.63 29.5697C182.052 29.7577 181.45 29.8574 180.842 29.8652C179.916 29.9129 179.004 29.6503 178.245 29.1188C177.917 28.8911 177.651 28.5861 177.469 28.2308C177.287 27.8755 177.195 27.4806 177.203 27.0816V23.4271C177.235 22.7298 177.002 22.0461 176.55 21.5144C176.332 21.2713 176.061 21.0797 175.761 20.9533C175.46 20.827 175.135 20.769 174.808 20.7835C174.514 20.7724 174.222 20.8283 173.951 20.9468C173.682 21.0653 173.444 21.2435 173.253 21.4677C172.842 21.9888 172.632 22.6401 172.662 23.3027V29.041C172.662 29.3365 172.522 29.492 172.227 29.492H169.598C169.538 29.4996 169.476 29.4931 169.418 29.4732C169.359 29.4531 169.306 29.4201 169.263 29.3766C169.219 29.3332 169.186 29.2803 169.166 29.2222C169.146 29.164 169.14 29.1021 169.147 29.041V23.4271C169.182 22.7374 168.966 22.0585 168.541 21.5144C168.351 21.2858 168.113 21.1018 167.844 20.9755C167.577 20.8493 167.283 20.7836 166.986 20.7835C166.669 20.7707 166.353 20.825 166.058 20.943C165.762 21.0609 165.496 21.2397 165.275 21.4677C164.831 21.9722 164.602 22.6312 164.638 23.3027V29.041C164.645 29.1021 164.639 29.164 164.619 29.2222C164.599 29.2803 164.566 29.3332 164.523 29.3766C164.479 29.4201 164.426 29.4531 164.369 29.4732C164.31 29.4931 164.247 29.4996 164.187 29.492H161.652C161.356 29.492 161.217 29.3365 161.217 29.041V21.7165C161.235 21.5918 161.224 21.4646 161.184 21.3449C161.145 21.2253 161.078 21.1164 160.988 21.0273C160.899 20.9382 160.79 20.8712 160.671 20.8315C160.551 20.7919 160.423 20.7808 160.299 20.799H159.786C159.444 20.799 159.273 20.6746 159.273 20.4258V18.5908C159.265 18.4773 159.296 18.3644 159.361 18.2711C159.427 18.1776 159.521 18.1094 159.63 18.0776C160.168 17.8822 160.738 17.7873 161.31 17.7977C161.859 17.7509 162.411 17.8604 162.901 18.1136C163.391 18.3667 163.798 18.7532 164.078 19.2284C164.602 18.7312 165.224 18.3474 165.904 18.1013C166.583 17.8551 167.306 17.7518 168.028 17.7977C168.729 17.7635 169.427 17.8949 170.068 18.1814C170.709 18.4678 171.272 18.901 171.713 19.4461C172.228 18.8867 172.861 18.4488 173.565 18.1636C174.27 17.8786 175.029 17.7537 175.788 17.7977C176.466 17.766 177.144 17.8753 177.778 18.119C178.413 18.3625 178.99 18.735 179.473 19.2128C179.946 19.7113 180.311 20.3005 180.549 20.9447C180.787 21.5889 180.893 22.2748 180.857 22.9606V25.9619C180.857 26.5529 181.122 26.8483 181.619 26.8483C181.86 26.8595 182.101 26.8334 182.335 26.7706C182.657 26.7706 182.828 26.895 182.848 27.1438L182.988 29.0877Z" fill="#F2F2F2"/>
<path d="M0.637586 16.1491C1.78488 11.5378 4.442 7.4428 8.18582 4.51635C11.9297 1.58983 16.545 0 21.2969 0C26.0488 0 30.6641 1.58983 34.408 4.51635C38.1519 7.4428 40.8089 11.5378 41.9563 16.1491H40.0902C36.9422 16.1028 33.8588 17.0436 31.2728 18.8394C31.1235 18.9475 30.9677 19.0462 30.8063 19.1349H30.5886C30.4272 19.0462 30.2713 18.9475 30.122 18.8394C27.5132 17.0851 24.4407 16.1482 21.2969 16.1482C18.1532 16.1482 15.0806 17.0851 12.4718 18.8394C12.3225 18.9475 12.1667 19.0462 12.0053 19.1349H11.7876C11.6261 19.0462 11.4703 18.9475 11.321 18.8394C8.73508 17.0436 5.65165 16.1028 2.50369 16.1491H0.637586ZM36.7312 25.8995C37.6891 25.1535 38.8764 24.7632 40.0902 24.7954H42.5938V19.8036H40.0902C37.9522 19.7778 35.8633 20.4432 34.1342 21.7008C33.1612 22.4181 31.9841 22.8052 30.7752 22.8052C29.5663 22.8052 28.3892 22.4181 27.4162 21.7008C25.6432 20.4667 23.5349 19.805 21.3747 19.805C19.2145 19.805 17.1061 20.4667 15.3332 21.7008C14.3601 22.4181 13.1831 22.8052 11.9742 22.8052C10.7652 22.8052 9.5882 22.4181 8.61518 21.7008C6.86478 20.427 4.74582 19.7608 2.58144 19.8036H0V24.7954H2.50369C3.71745 24.7632 4.90475 25.1535 5.86268 25.8995C7.63237 27.1346 9.73842 27.7967 11.8964 27.7967C14.0544 27.7967 16.1605 27.1346 17.9302 25.8995C18.8893 25.1559 20.0757 24.7659 21.2891 24.7954C22.5034 24.7606 23.6914 25.1512 24.6481 25.8995C26.4211 27.1338 28.5295 27.7953 30.6897 27.7953C32.8498 27.7953 34.9582 27.1338 36.7312 25.8995ZM36.7312 34.8257C37.6891 34.0797 38.8764 33.6894 40.0902 33.7216H42.5938V28.7298H40.0902C37.9522 28.704 35.8633 29.3694 34.1342 30.627C33.1612 31.3443 31.9841 31.7314 30.7752 31.7314C29.5663 31.7314 28.3892 31.3443 27.4162 30.627C25.6432 29.3929 23.5349 28.7313 21.3747 28.7313C19.2145 28.7313 17.1061 29.3929 15.3332 30.627C14.3601 31.3443 13.1831 31.7314 11.9742 31.7314C10.7652 31.7314 9.5882 31.3443 8.61518 30.627C6.86478 29.3534 4.74582 28.687 2.58144 28.7298H0V33.7216H2.50369C3.71745 33.6894 4.90475 34.0797 5.86268 34.8257C7.63237 36.0608 9.73842 36.7229 11.8964 36.7229C14.0544 36.7229 16.1605 36.0608 17.9302 34.8257C18.8893 34.0821 20.0757 33.6921 21.2891 33.7216C22.5034 33.6868 23.6914 34.0774 24.6481 34.8257C26.4211 36.06 28.5295 36.7215 30.6897 36.7215C32.8498 36.7215 34.9582 36.06 36.7312 34.8257Z" fill="#F2F2F2"/>
</svg>