<svg xmlns="http://www.w3.org/2000/svg" width="183" height="88" viewBox="0 0 183 88" fill="none">
<path d="M0 52.2573H5.47963V79.1257H0V52.2573Z" fill="#F2F2F2"/>
<path d="M8.65474 69.92C8.65112 67.9901 9.22008 66.1025 10.2896 64.4961C11.3592 62.8897 12.8812 61.6367 14.6632 60.8956C16.4451 60.1546 18.4068 59.9589 20.3001 60.3332C22.1933 60.7074 23.933 61.6349 25.2988 62.9984C26.6648 64.3616 27.5955 66.0996 27.9733 67.9921C28.3513 69.8846 28.1592 71.8467 27.4215 73.6301C26.6837 75.4133 25.4336 76.9377 23.8291 78.0102C22.2248 79.083 20.3384 79.6553 18.4085 79.6553C17.125 79.67 15.8516 79.4284 14.6628 78.9445C13.4741 78.4607 12.3938 77.7445 11.4854 76.8377C10.577 75.9311 9.85868 74.8522 9.37262 73.6641C8.88656 72.4763 8.64249 71.2034 8.65474 69.92ZM22.6459 69.92C22.6245 69.0869 22.3577 68.2785 21.8792 67.5963C21.4007 66.9139 20.7316 66.388 19.9556 66.0839C19.1795 65.7799 18.3312 65.7116 17.5166 65.8872C16.7019 66.0628 15.9572 66.4748 15.3754 67.0716C14.7938 67.6683 14.4009 68.4234 14.2461 69.2424C14.0912 70.0612 14.1813 70.9076 14.505 71.6755C14.8288 72.4434 15.3717 73.0989 16.0659 73.5599C16.7603 74.0208 17.5751 74.2668 18.4085 74.267C18.9786 74.2831 19.5459 74.1808 20.0745 73.9665C20.6032 73.7521 21.0817 73.4307 21.48 73.0221C21.878 72.6136 22.1873 72.1272 22.3879 71.5933C22.5887 71.0592 22.6765 70.4896 22.6459 69.92Z" fill="#F2F2F2"/>
<path d="M50.1942 60.7138V78.212C50.1942 84.404 45.3539 87.016 40.4588 87.016C38.7375 87.1441 37.0141 86.7959 35.4773 86.0098C33.9405 85.2237 32.6498 84.0299 31.7463 82.5593L36.4588 79.8377C36.8326 80.5913 37.4243 81.2155 38.157 81.6291C38.8897 82.0426 39.7298 82.2268 40.5685 82.1573C41.1201 82.2494 41.6857 82.2134 42.2215 82.0521C42.7573 81.891 43.2488 81.6089 43.6583 81.2277C44.0676 80.8465 44.384 80.3762 44.5831 79.8534C44.7821 79.3306 44.8583 78.7691 44.8059 78.212V76.5133C44.1618 77.306 43.3397 77.9356 42.4068 78.3513C41.4739 78.7669 40.4561 78.9571 39.436 78.9062C36.9557 78.9062 34.5771 77.9209 32.8231 76.1671C31.0693 74.4133 30.084 72.0345 30.084 69.5542C30.084 67.0739 31.0693 64.6953 32.8231 62.9415C34.5771 61.1877 36.9557 60.2024 39.436 60.2024C40.4555 60.1558 41.4718 60.3479 42.4041 60.7631C43.3364 61.1786 44.1589 61.8059 44.8059 62.5951V60.7686L50.1942 60.7138ZM44.8059 69.5542C44.8425 68.666 44.6123 67.7871 44.1453 67.0304C43.6782 66.2739 42.9956 65.6743 42.1852 65.3089C41.3747 64.9433 40.4733 64.8286 39.5971 64.9795C38.7209 65.1301 37.9098 65.5396 37.2682 66.1549C36.6265 66.7704 36.1835 67.5636 35.9963 68.4327C35.8088 69.3018 35.8858 70.2072 36.2172 71.0322C36.5485 71.8573 37.1189 72.5643 37.8553 73.0626C38.5917 73.561 39.4602 73.8276 40.3491 73.8284C40.9296 73.8694 41.512 73.7885 42.059 73.5906C42.6062 73.3928 43.1059 73.0827 43.5258 72.68C43.9455 72.2773 44.2765 71.791 44.497 71.2527C44.7175 70.7144 44.8227 70.1358 44.8059 69.5542Z" fill="#F2F2F2"/>
<path d="M53.352 69.92C53.3483 67.9901 53.9174 66.1025 54.9869 64.4961C56.0565 62.8897 57.5786 61.6367 59.3604 60.8956C61.1423 60.1546 63.104 59.9589 64.9973 60.3332C66.8905 60.7074 68.6302 61.6349 69.9962 62.9984C71.362 64.3616 72.2928 66.0996 72.6707 67.9921C73.0485 69.8846 72.8564 71.8467 72.1187 73.6301C71.3809 75.4133 70.1308 76.9377 68.5265 78.0102C66.9221 79.083 65.0356 79.6553 63.1058 79.6553C61.8224 79.67 60.5488 79.4284 59.36 78.9445C58.1712 78.4607 57.091 77.7445 56.1826 76.8377C55.2743 75.9311 54.5559 74.8522 54.0698 73.6641C53.5837 72.4763 53.3396 71.2034 53.352 69.92ZM67.3433 69.92C67.3217 69.0869 67.0549 68.2785 66.5764 67.5963C66.0979 66.9139 65.4288 66.388 64.6528 66.0839C63.8769 65.7799 63.0286 65.7116 62.2139 65.8872C61.3991 66.0628 60.6545 66.4748 60.0726 67.0716C59.491 67.6683 59.0981 68.4234 58.9432 69.2424C58.7885 70.0612 58.8786 70.9076 59.2022 71.6755C59.526 72.4434 60.069 73.0989 60.7632 73.5599C61.4576 74.0208 62.2723 74.2668 63.1058 74.267C63.6729 74.2779 64.2361 74.1719 64.7605 73.9552C65.2847 73.7386 65.7588 73.4163 66.153 73.0084C66.5472 72.6007 66.853 72.1157 67.0517 71.5844C67.2501 71.0531 67.337 70.4863 67.3068 69.92H67.3433Z" fill="#F2F2F2"/>
<path d="M75.3984 55.7823C75.3984 55.1248 75.5934 54.4821 75.9586 53.9354C76.324 53.3888 76.8431 52.9627 77.4505 52.7111C78.0581 52.4594 78.7263 52.3936 79.3712 52.5219C80.0161 52.6501 80.6084 52.9668 81.0734 53.4316C81.5384 53.8966 81.8548 54.4888 81.9831 55.1337C82.1115 55.7786 82.0456 56.4471 81.7941 57.0545C81.5424 57.6618 81.1163 58.1812 80.5697 58.5464C80.0229 58.9115 79.3803 59.1065 78.7227 59.1065C77.8426 59.1019 76.9998 58.75 76.3774 58.1276C75.7549 57.5053 75.4033 56.6626 75.3984 55.7823ZM75.9646 60.7139H81.4442V79.1254H75.9646V60.7139Z" fill="#F2F2F2"/>
<path d="M105.337 69.9198C105.403 71.1368 105.228 72.355 104.822 73.5042C104.416 74.6533 103.786 75.7108 102.969 76.6156C102.153 77.5205 101.165 78.2549 100.064 78.7766C98.9622 79.2983 97.7684 79.5969 96.551 79.6553C95.5289 79.7043 94.5084 79.5287 93.5618 79.1404C92.6149 78.7522 91.7648 78.1611 91.0714 77.4087V86.5413H85.5918V60.714H91.0714V62.4493C91.7648 61.6968 92.6149 61.1057 93.5618 60.7175C94.5084 60.3293 95.5289 60.1537 96.551 60.2026C97.7669 60.261 98.9591 60.5591 100.059 61.0796C101.16 61.6003 102.146 62.333 102.963 63.2359C103.779 64.1388 104.409 65.194 104.816 66.341C105.224 67.488 105.401 68.7043 105.337 69.9198ZM99.857 69.9198C99.8354 69.0625 99.5626 68.2304 99.0727 67.5265C98.5827 66.8228 97.8972 66.2779 97.1009 65.9599C96.3046 65.6418 95.4322 65.5642 94.5923 65.7369C93.7523 65.9095 92.9813 66.3247 92.3749 66.9311C91.7685 67.5375 91.3534 68.3083 91.1807 69.1484C91.0081 69.9884 91.0857 70.8606 91.4037 71.6569C91.7219 72.4533 92.2666 73.139 92.9704 73.6287C93.6743 74.1187 94.5065 74.3914 95.3637 74.4131C95.962 74.4512 96.5614 74.3607 97.122 74.1479C97.6823 73.9349 98.1907 73.6046 98.6129 73.179C99.035 72.7533 99.3613 72.2423 99.5696 71.6802C99.7777 71.1181 99.8634 70.5179 99.8205 69.9198H99.857Z" fill="#F2F2F2"/>
<path d="M122.397 73.6091C122.397 77.8467 118.744 79.6549 114.725 79.6549C113.12 79.7971 111.509 79.4555 110.099 78.6742C108.69 77.893 107.547 76.7078 106.816 75.2713L111.602 72.5497C111.796 73.2142 112.212 73.7921 112.78 74.1875C113.348 74.5828 114.035 74.772 114.725 74.7233C116.059 74.7233 116.716 74.3032 116.716 73.5726C116.716 71.5451 107.584 72.6229 107.584 66.2665C107.584 62.248 110.981 60.2205 114.89 60.2205C116.332 60.1768 117.76 60.5194 119.025 61.2132C120.291 61.9068 121.347 62.9264 122.086 64.1658L117.283 66.6866C117.07 66.2042 116.723 65.7937 116.282 65.5051C115.841 65.2165 115.325 65.0622 114.798 65.0608C113.849 65.0608 113.264 65.4262 113.264 66.102C113.337 68.2025 122.397 66.7961 122.397 73.6091Z" fill="#F2F2F2"/>
<path d="M142.56 60.7141V79.1256H137.08V77.4088C136.443 78.1717 135.634 78.7728 134.719 79.1634C133.805 79.5539 132.811 79.7224 131.82 79.6554C128.167 79.6554 124.934 77.0068 124.934 72.0205V60.7141H130.413V71.2168C130.365 71.6644 130.417 72.117 130.566 72.542C130.714 72.9669 130.956 73.3534 131.272 73.6735C131.589 73.9936 131.973 74.2391 132.396 74.3923C132.819 74.5457 133.271 74.6026 133.719 74.5594C135.729 74.5594 137.135 73.3903 137.135 70.7785V60.7141H142.56Z" fill="#F2F2F2"/>
<path d="M174.234 67.8376V79.1256H168.754V68.3126C168.754 66.4861 167.859 65.2804 166.105 65.2804C164.352 65.2804 163.219 66.5774 163.219 68.7509V79.1256H157.74V68.3126C157.74 66.4861 156.863 65.2804 155.091 65.2804C153.32 65.2804 152.224 66.5774 152.224 68.7509V79.1256H146.744V60.7142H152.224V62.4129C152.796 61.6626 153.548 61.0674 154.409 60.6815C155.27 60.2955 156.214 60.1308 157.155 60.2028C158.1 60.1568 159.041 60.3566 159.886 60.7821C160.731 61.2078 161.452 61.8452 161.977 62.6321C162.589 61.8094 163.399 61.155 164.331 60.7303C165.264 60.3055 166.289 60.1239 167.311 60.2028C171.476 60.2028 174.234 63.2348 174.234 67.8376Z" fill="#F2F2F2"/>
<path d="M178.908 60.6046C181.168 60.6046 182.999 58.7726 182.999 56.513C182.999 54.2534 181.168 52.4216 178.908 52.4216C176.648 52.4216 174.816 54.2534 174.816 56.513C174.816 58.7726 176.648 60.6046 178.908 60.6046Z" fill="#F2F2F2"/>
<path d="M62.0081 38.3208C72.5901 38.3208 81.1684 29.7423 81.1684 19.1603C81.1684 8.5784 72.5901 0 62.0081 0C51.4261 0 42.8477 8.5784 42.8477 19.1603C42.8477 29.7423 51.4261 38.3208 62.0081 38.3208Z" fill="#F2F2F2"/>
<path d="M104.842 38.3208C115.424 38.3208 124.002 29.7423 124.002 19.1603C124.002 8.5784 115.424 0 104.842 0C94.2601 0 85.6816 8.5784 85.6816 19.1603C85.6816 29.7423 94.2601 38.3208 104.842 38.3208Z" fill="#F2F2F2"/>
<path d="M38.3357 0H0.0332031V38.3024H38.3357V0Z" fill="#F2F2F2"/>
</svg>